<?xml version="1.0" encoding="UTF-8"?>
<svg version="1.1"
  viewBox="0 0 905.01 586.79"
  xml:space="preserve"
  xmlns="http://www.w3.org/2000/svg">
  <g transform="matrix(1.3333 0 0 -1.3333 0 586.79)">
    <g transform="scale(.1)">
      <path d="m5956.7 191.06c-443.02 0-802.16 46.839-802.16 104.62 0 35.359 134.52 66.621 340.48 85.55-226.84-68.73-145.01-84.148-25.73-84.148 97.25 0 219.42 10.258 219.42 10.258l11.63 87.488c80.49 3.543 166.73 5.461 256.36 5.461 443.02 0 802.16-46.84 802.16-104.61 0-57.782-359.14-104.62-802.16-104.62"
        fill="#dbdada"/>
      <path d="m5734 648.01-45.27-340.67s-665.12-55.891-126.99 93.148l36.47 215.58 135.79 31.942"
        fill="#29202e"/>
      <path d="m5699.6 388.78 34.45 259.23-135.79-31.942-30.52-180.4c43.54-17.231 87.52-32.742 131.86-46.891"
        fill="#18131c"/>
      <path d="m5484.4 316.06c-7.6 18.57-16.87 36.55-27.58 54.242-80.26-26.731-108.28-44.211-104.77-55.371 2.51-42.34 336.73-10.11 336.73-10.11l2.66 22.981c-16.86-1.582-118.76-10.762-207.04-11.742"
        fill="#fff"/>
      <path d="m6186 637.38 7.29-344.03s654.25-140.4 136.39 76.277l-12.38 218.71-131.3 49.039"
        fill="#29202e"/>
      <path d="m6191.6 375.59-5.55 261.79 131.3-49.039 10.36-183.02c-45.13-11.55-90.52-21.351-136.11-29.73"
        fill="#18131c"/>
      <path d="m6397.2 275.92c9.59 17.457 20.78 34.129 33.37 50.328 76.74-36.789 102.64-57.719 97.92-68.352-7.18-41.726-335.47 32.942-335.47 32.942l-0.1 23.16c16.57-3.719 116.73-25.84 204.28-38.078"
        fill="#fff"/>
      <path d="m5758.8 2436s-98.07-648.59-196.13-1986.3l150.87 8.109 331.93 1516.1h45.26l90.53-1540.4h143.34l98.07 1978.2-663.87 24.32"
        fill="#5b94c0"/>
      <path d="m6422.6 2411.7-663.87 24.32 663.87-24.32"
        fill="#dbdada"/>
      <path d="m6326.4 2232.9c-247.04 0.01-478.38 48.25-585.4 74.33 11.24 85.96 17.71 128.73 17.71 128.75l663.87-24.32-8.76-176.65c-29.25-1.44-58.42-2.11-87.42-2.11"
        fill="#5484ab"/>
      <path d="m5562.6 449.68c35.52 484.66 71.05 878.86 101.92 1184.5-30.87-305.68-66.4-699.86-101.92-1184.5m101.92 1184.6c0.03 0.3 0.06 0.58 0.09 0.88-0.03-0.31-0.06-0.57-0.09-0.88"
        fill="#dbdada"/>
      <path d="m5562.6 449.68c35.52 484.66 71.05 878.84 101.92 1184.5v0.05c0.03 0.31 0.06 0.57 0.09 0.88 18.6 184.1 35.5 336.06 49.68 456.28l331.44-117.54h-0.33l-331.93-1516.1-150.87-8.109"
        fill="#5484ab"/>
      <path d="m6093.2 1931.2-1.55 26.35 4.49-1.59s-1.05-8.83-2.94-24.76"
        fill="#5484ab"/>
      <path d="m5547.3 451.76 171.99-25.231 25.16 83.25-190.73 8.867-6.42-66.886"
        fill="#69acd0"/>
      <path d="m6347.6 418.72-176.09-6.11-17.32 85.582 193.41-12.222v-67.25"
        fill="#69acd0"/>
      <path d="m6042.2 3561 28.45 196.73 221.45 57.45-39.03-271.84 166.97-90.17-390.77-154.41-162.23 245.59 175.16 16.65"
        fill="#a1444b"/>
      <path d="m6264.4 3621.9 27.74 193.21-221.45-57.45-25.95-179.49c74.82 4.89 148.69 17.79 219.66 43.73"
        fill="#7a3134"/>
      <path d="m6283.8 3774.7s-99.34-184.38-269.17-136.89c-119.6 33.44-111.69 206.35-77.55 374.82 53.16 262.31 140.67 264.54 268.22 231.84 288.88-74.05 78.5-469.77 78.5-469.77"
        fill="#a1444b"/>
      <path d="m6394.8 4198.4c-48.58-35.29-49.14-4.46-96.45-41.47-61.79-169.83-2.42-211.71-2.42-211.71l-9.56-73.25 11.9-15.51-21.65-132.31s97.82 119.98 155.65 295.72c43.13 131.05 4.12 176.32-37.47 178.53"
        fill="#29202e"/>
      <path d="m6281.4 3798.8 45.71 166s65.3 2.07 63.5-52.12-34.63-123.5-109.21-113.88"
        fill="#a1444b"/>
      <path d="m6291.2 4155.7s-81.22 44.81-113.71-3.46-92.3-41.46-131.78 12.1-72.93-40.47-134.36 9.87c-61.43 50.35-53.95 184.89 59.59 219.96s104.9-82.49 179.24-22.83c74.34 59.67 158.35-11.64 159.27-64.77 0.91-53.14 148.4-15.73 98.08-142.3-50.31-126.56-116.33-8.57-116.33-8.57"
        fill="#29202e"/>
      <path d="m6053.9 3838.9s-3.67 0.57-9.72 3.18c-5.84 2.75-14.52 7.6-21.45 17.35-3.54 4.76-6.44 10.73-8.18 17.4-1.88 6.69-2.2 13.99-1.86 21.41 0.34 4.27 0.95 7.06 1.42 10.74 0.82 3.68 1.64 7.4 2.48 11.15 2.06 7.14 4.4 14.24 6.98 21.2 2.53 6.99 5.56 13.75 8.54 20.37 2.87 6.67 6.16 13 9.32 19.13 6.3 12.26 12.91 23.29 18.84 32.57 11.81 18.59 21.42 29.89 21.42 29.89s-4.91-13.97-13.32-34.12c-8.23-20.22-20.08-46.69-30.49-73.3-2.68-6.63-4.99-13.33-7.19-19.89-0.98-3.18-1.96-6.34-2.93-9.46-0.68-3.25-1.75-7.22-2.07-9.75-0.92-6.13-1.41-12.2-0.47-17.76 0.79-5.55 2.17-10.83 4.56-15.26 4.34-9.16 11.07-15.31 15.86-19.26 4.93-3.9 8.26-5.59 8.26-5.59"
        fill="#7a3134"/>
      <path d="m6101.8 3957.2s-0.12 2.25 0.27 6.19c0.45 3.93 1.42 9.56 4.03 16.05 2.61 6.42 7.01 13.94 14.81 19.72 3.92 2.78 8.67 4.89 13.7 5.97 5.06 1.06 10.29 0.89 15.22 0.13 1.29-0.25 2.31-0.37 3.82-0.75l3.17-0.84c2.5-0.84 4.9-1.77 7.09-2.84 4.48-2.14 8.68-5.05 11.9-8.71 6.72-7.21 9.36-16.24 9.67-23.32 0.43-7.2-0.92-12.91-2.16-16.7-1.24-3.81-2.42-5.77-2.42-5.77s-0.03 2.28-0.39 6.09c-0.41 3.8-1.13 9.17-2.99 14.94-1.87 5.79-5.17 11.7-10.24 16.13-2.57 2.17-5.55 4.01-8.89 5.52-1.72 0.75-3.4 1.3-5.05 1.83l-3.16 0.87-2.61 0.58c-7.38 1.38-14.54 0.63-20.53-2.72-6.08-3.22-10.92-8.58-14.59-13.6-3.66-5.07-6.25-9.87-8-13.28-1.77-3.41-2.65-5.49-2.65-5.49"
        fill="#161118"/>
      <path d="m5955.5 3983.5s-0.1 2.25 0.34 6.19c0.49 3.92 1.53 9.54 4.22 16 2.68 6.39 7.17 13.85 15.03 19.54 3.95 2.74 8.73 4.8 13.77 5.82 5.07 0.99 10.3 0.77 15.22-0.05 1.29-0.27 2.31-0.4 3.82-0.79l3.16-0.88c2.48-0.86 4.87-1.83 7.05-2.92 4.45-2.19 8.62-5.16 11.8-8.85 6.63-7.28 9.17-16.34 9.4-23.43 0.34-7.2-1.08-12.9-2.35-16.67-1.29-3.8-2.49-5.75-2.49-5.75s-0.01 2.29-0.33 6.1c-0.36 3.8-1.01 9.18-2.81 14.98s-5.04 11.75-10.05 16.24c-2.55 2.19-5.51 4.08-8.82 5.62-1.72 0.77-3.39 1.35-5.04 1.89l-3.15 0.91-2.6 0.61c-7.36 1.46-14.53 0.8-20.56-2.48-6.11-3.15-11.02-8.46-14.74-13.43-3.73-5.03-6.37-9.8-8.16-13.18-1.81-3.4-2.71-5.47-2.71-5.47"
        fill="#161118"/>
      <path d="m6116.7 4084.8s1.36 2.17 4.53 5.11c3.15 2.88 8.09 6.57 14.65 9.66 6.55 2.97 14.72 5.56 23.68 6.36 4.49 0.62 9.12 0.52 13.84 0.33 4.73-0.16 9.4-1.16 14.13-1.87 4.57-1.32 9.22-2.44 13.55-4.17 4.29-1.79 8.46-3.71 12.3-5.86 3.76-2.31 7.28-4.73 10.51-7.1 3.16-2.48 5.87-5.22 8.35-7.69 5-4.9 8.16-10.14 10.35-13.69 2.15-3.6 3.09-5.93 3.09-5.93s-2.62 0.03-6.71 0.55c-4.17 0.38-9.54 1.68-15.99 2.6-3.17 0.54-6.43 1.39-9.87 2.11-3.47 0.63-7.03 1.38-10.58 2.34-3.61 0.8-7.33 1.42-10.95 2.5-3.7 0.76-7.4 1.56-11.07 2.5-7.42 1.55-14.84 3.1-21.8 4.55-7.07 1.54-13.85 2.66-19.98 3.87-6.14 1.21-11.53 2.06-15.54 2.79-3.95 0.63-6.49 1.04-6.49 1.04"
        fill="#29202e"/>
      <path d="m5949.3 4075.7s1.12 2.02 3.86 4.77c2.72 2.72 7.05 6.2 12.91 9.12 5.84 2.8 13.21 5.27 21.32 5.96 8.12 0.96 16.84 0.13 25.25-1.73 4.08-1.31 8.28-2.35 12.1-4.1 3.8-1.75 7.53-3.55 10.86-5.68 3.3-2.2 6.36-4.5 9.16-6.74 2.69-2.42 5.03-4.95 7.13-7.28 4.26-4.6 6.79-9.49 8.58-12.77 1.74-3.34 2.46-5.48 2.46-5.48s-2.37 0.09-6.03 0.66c-3.73 0.44-8.47 1.79-14.2 2.76-2.81 0.57-5.7 1.37-8.71 2.15-3.07 0.64-6.2 1.38-9.31 2.33-3.14 0.86-6.43 1.41-9.57 2.46-3.18 0.81-6.42 1.63-9.65 2.44-3.21 0.78-6.41 1.54-9.57 2.3-3.18 0.55-6.31 1.54-9.39 2.06-6.17 1.45-12.12 2.44-17.54 3.53-5.42 1.07-10.23 1.78-13.82 2.39-3.72 0.54-5.84 0.85-5.84 0.85"
        fill="#29202e"/>
      <path d="m6310.4 3824.8c5.09 2.47 9.97 5 14.39 7.85 2.2 1.45 4.25 2.93 6.06 4.51l2.28 2.5 1.58 2.43 0.64 2.16-0.29 1.9-0.2 0.66-0.72 1.93c-0.5 1.18-0.95 2.8-1.48 3.62l-1.33 2.19-1.63 1.75-1.37 0.86c-0.16 0.25-1.17 0.07 0.09 0.16l-8.31 8.66c2.01 14.38 5.26 28.24 11.3 41.82 1.59 3.35 3.37 6.68 5.53 9.92 1.04 1.64 2.28 3.19 3.72 4.7 1.39 1.49 2.99 2.96 5 4.16 1.9 1.25 4.51 2.06 7.05 1.89 2.6-0.09 4.75-1.33 6.35-2.62 3.15-2.79 4.68-6.19 5.99-9.53-2.77 2.28-5.6 4.54-8.42 5.45-1.38 0.43-2.64 0.58-3.55 0.14-0.94-0.35-1.67-1-2.5-1.91-1.64-1.82-2.9-4.65-4.08-7.5-1.19-2.88-2.16-6-2.97-9.2-3.44-12.69-5.97-26.3-8.31-39.46l-8.31 8.66c3.98 0.04 5.74-0.75 7.97-1.83 2.18-1.03 3.71-2.47 5.26-3.93 1.35-1.5 2.36-3.1 3.44-4.69 0.81-1.72 1.6-3.46 2.28-5.2 0.61-1.67 0.69-2.78 1.07-4.19l0.45-2.01c0.42-1.56 0.25-2.24 0.36-3.4 0.31-4.18-1.47-8.55-3.81-11.42-2.29-3.13-5.25-4.74-8-6.31-2.82-1.35-5.61-2.48-8.48-3.11-5.67-1.43-11.38-1.98-17.05-1.61"
        fill="#7a3134"/>
      <path d="m5971.1 3810.8 211.71-28.87s-132.32-79.39-211.71 28.87"
        fill="#fff"/>
      <path d="m6622.8 2204.7s-211.78-120.16 5.81-29.21c0 0-26.38-284.46 26.37-36.77 0 0-3.81-294.18 32.97-9.68 0 0 13.19-290.26 32.97 5.81 0 0 40.09-230.34 16.75 66.73s-114.87 3.12-114.87 3.12"
        fill="#a1444b"/>
      <path d="m5570.1 3984.2c-6.13-11.5-2.64-24.68 7.8-29.45l101.61-46.36c10.44-4.76 23.88 0.7 30.01 12.2l148.54 278.53c6.13 11.5 2.64 24.69-7.8 29.45l-101.61 46.36c-10.45 4.76-23.88-0.7-30.01-12.2l-148.54-278.53"
        fill="#29202e"/>
      <path d="m5349.6 3494.7s-110.12-95.72-169.05-5.69c-58.92 90.04 413.99 630.24 413.99 630.24s31.04 31.02 68.56 43.45c37.52 12.44 206.35 46.19-9.28-28.24 0 0 282.02 35.54-16.03-26.04 0 0 294.1 17.52-14.78-33.03 0 0 242.8-6.88 17.22-25.38 0 0-85.25-235.54-290.63-555.31"
        fill="#a1444b"/>
      <path d="m6612.6 2279.1-1.61-75.38s81.97-20.96 127.48-2.21l7.59 71.87-133.46 5.72"
        fill="#367b7b"/>
      <path d="m5572.7 3886.2 32.97 60.54s-34.93 48.51-117.02 70.21l-45.29-56.33 129.34-74.42"
        fill="#367b7b"/>
      <path d="m5739.6 2397.7-15.56-77.78s459.72-65.67 689.58-65.67l5.19 77.77-679.21 65.68"
        fill="#367b7b"/>
      <path d="m5749.4 2376.4s-116.96-8.05-84.83 261.58c37.79 317.15 0 586.79 0 586.79s-609.92 103.7-567.5 238.02c42.41 134.33 283.43 494.55 335.19 502 51.76 7.44 152.74-45.36 140.4-89.61-12.33-44.25-142-298.51-142-298.51s440.72-19.08 540.56-35.72c40.61-6.77 74.28-41.37 133.81-46.74 38.06-3.44 98.61 22.53 139.39 18.35 161.94-16.61 306.04-55.36 357.59-124.09 84.84-113.12 177.5-546.74 184.57-624.51 7.07-77.76-22.75-460.16-30.34-493.03-7.58-32.87-117.52-45.01-143.57-12.6s-36.11 471.56-36.11 471.56l-120.19 318.13s77.77-643.34-42.41-742.32l-664.56 70.7"
        fill="#458582"/>
      <path d="m5800.5 2857.5 568.88-17.7s17.7-376.72-93.55-394.42-437.4-42.98-475.33 83.43c-37.93 126.42 0 328.69 0 328.69"
        fill="#367b7b"/>
      <path d="m5791.5 3557.4s-17.7 50.57 121.36 53.09c45.78 0.83 70.79-106.19 192.15-116.3 0 0-55.62-55.63-103.66-32.87-48.04 22.75-139.06 93.55-209.85 96.08"
        fill="#367b7b"/>
      <path d="m6413.4 3491.6s3.34 91.02-123.89 93.55c-41.88 0.83-73.53-80.91-184.57-91.02 0 0 50.89-55.63 94.84-32.87 43.96 22.75 148.85 27.81 213.62 30.34"
        fill="#367b7b"/>
      <path d="m6025.5 3479.9c-31.8-124.98-56.43-252.98-69.32-381.39-0.21-2.09 1.31-3.95 3.39-4.15 2.09-0.21 3.95 1.31 4.16 3.39 12.84 127.96 37.4 255.59 69.12 380.28 0.51 2.03-0.71 4.1-2.74 4.61-2.03 0.52-4.1-0.71-4.61-2.74"
        fill="#fff"/>
      <path d="m6164.5 3471.2c7.61-77.66 11.77-155.79 13.36-233.83 0.04-2.06 1.75-3.69 3.8-3.65 2.06 0.04 3.7 1.74 3.66 3.8-1.59 78.2-5.76 156.53-13.39 234.41-0.2 2.05-2.03 3.55-4.08 3.35s-3.55-2.03-3.35-4.08"
        fill="#fff"/>
      <path d="m4422.6 210.31c-318.54 0-576.76 46.832-576.76 104.61 0 44.656 154.32 82.789 371.53 97.789l2.01-11.801s-212.17-101.04-141.31-101.05c26.83-7e-3 94.23 14.481 229.11 54.411l5.35 63.359c35.63 1.25 72.43 1.902 110.07 1.902 30.78 0 60.98-0.441 90.45-1.281l5.41-63.98c134.89-39.93 202.28-54.411 229.11-54.411 70.86 0-141.31 101.05-141.31 101.05l2.23 13.07c227.34-14.031 390.88-53.082 390.88-99.058 0-57.781-258.23-104.61-576.77-104.61"
        fill="#dbdada"/>
      <path d="m4407.4 4043.7s147.95 48 221.98-50.7c74.02-98.7-7.09-238.24 88.63-294.58s10.85-71.27 10.85-71.27 92.75-42.7 29.66-75.79c0 0 93.37-32.66 17.22-91.82 0 0 73.74-41.54-24.18-82.55 0 0 68.91-58.05-38.97-74.91-107.87-16.87-391.36 88.05-391.36 88.05l86.17 653.57"
        fill="#5b94c0"/>
      <path d="m4427 4044.7s-158.39 134.51-287.27-9.71c-80.68-90.27-22-240.14-117.79-285.24-95.8-45.1-18.65-70.28-18.65-70.28s-91.4-31.77-36.69-72.56c0 0-90.76-21.6-27.03-90.17 0 0-73.58-32.87 12.58-85.81 0 0-71.06-50.04 27.26-79.92 98.32-29.89 374.6 41.48 374.6 41.48l72.99 652.21"
        fill="#5b94c0"/>
      <path d="m4200.9 3660.5 38.47-258.82-157.48-16.7s344.28-397.93 360.07-394.45c133.02 29.24 174.45 391.01 174.45 391.01l-203.45 20.57-39.7 231.7-172.36 26.69"
        fill="#f78e92"/>
      <path d="m4410.6 3416.3c-54.38 0.5-111.21 15.66-160.98 26.33-5.58 1.2-11.19 2.43-16.81 3.69l-31.84 214.2 172.36-26.69 37.27-217.53"
        fill="#f68182"/>
      <path d="m4138.6 3815.6s31.22 149.2 219.34 169.49c188.13 20.3 236.88-136.18 236.09-264.16-0.78-127.98-58.8-251.87-205.03-264.85-177.83-15.79-250.33 143.49-250.4 359.52"
        fill="#f78e92"/>
      <path d="m4147.2 3779.4s-65.31 21.53-61.42-47.93c6.22-111.2 84.91-82.59 84.91-82.59s-27.82 40.47-23.49 130.52"
        fill="#f78e92"/>
      <path d="m4463 4017.8s-11.06-126.25-87.19-178.95-172.76-55.12-172.76-55.12-17.5-98.27-32.05-74.75c0 0-33.57 53.48-49.73 94.6s21.2 260.62 168.24 263.33c147.05 2.72 173.49-49.11 173.49-49.11"
        fill="#5b94c0"/>
      <path d="m4579.3 3808.7s-0.92-2.1-3.28-5.28c-2.37-3.13-6.1-7.53-11.67-11.51-2.69-2.18-5.93-4.03-9.42-5.99-3.62-1.56-7.43-3.59-11.72-4.58-4.21-1.34-8.71-2.19-13.36-2.55-4.64-0.79-9.37-0.07-14.11-0.03-4.64 0.74-9.32 1.51-13.74 2.79-4.31 1.54-8.61 2.99-12.46 4.92-3.77 2.09-7.32 4.23-10.61 6.3-3.12 2.34-5.83 4.84-8.33 7.07-2.59 2.12-4.68 4.37-6.32 6.59-1.75 2.07-3.13 4.03-4.27 5.6-2.25 3.18-3.36 5.11-3.36 5.11s2.24-0.64 5.86-1.93c3.7-1.14 8.34-3.63 14.29-5.47 2.94-1 6.02-2.16 9.2-3.38 3.31-0.92 6.72-1.92 10.14-3.1 3.48-1 7.14-1.54 10.7-2.59 3.63-0.55 7.31-1.12 10.99-1.68 3.68-0.05 7.38-0.8 11.01-0.52 1.82 0.07 3.63 0.05 5.44 0.01 1.8 0.16 3.58 0.32 5.33 0.48 3.56 0.11 6.9 0.99 10.25 1.34 3.21 0.79 6.47 1.17 9.34 2.03 11.68 2.97 20.1 6.37 20.1 6.37"
        fill="#29202e"/>
      <path d="m4482.8 3718.1s0.59-2.27 1.41-6.22c0.37-1.98 0.82-4.38 1.34-7.13 0.79-2.63 1.67-5.51 2.44-8.61 0.67-3.12 2.47-6.24 3.54-9.64 0.5-1.75 1.72-3.14 2.54-4.76 1-1.5 1.58-3.35 2.88-4.59 1.19-1.32 2.19-2.87 3.46-4.07 1.42-0.98 2.72-2.09 4.04-3.14l4.43-1.97c1.61-0.1 3.1-0.73 4.72-0.67 3.24 0 6.54 0.85 9.8 2.25 1.55 0.96 3.16 1.77 4.78 2.62 1.47 1.19 2.92 2.36 4.35 3.52 2.73 2.51 5.29 5.32 7.61 8.05 1.95 3.04 4.37 5.64 5.98 8.48 1.58 2.86 3.19 5.45 4.65 7.78 1.22 2.45 2.3 4.59 3.18 6.35 1.83 3.56 3.03 5.62 3.03 5.62s-0.05-2.3-0.38-6.37c-0.2-2.02-0.32-4.55-0.82-7.36-0.66-2.78-1.42-5.94-2.44-9.37-0.92-3.47-2.77-6.96-4.5-10.77-2.08-3.62-4.42-7.54-7.64-11.03-1.71-1.7-3.45-3.44-5.21-5.19-2.04-1.52-4.26-2.94-6.51-4.33-4.74-2.52-10.28-4.1-16.17-4.12-2.89 0-5.8 0.9-8.64 1.46-2.7 0.99-5.19 2.53-7.67 3.85-2.16 1.72-4.09 3.66-5.98 5.52-1.69 1.99-2.91 4.21-4.3 6.26-2.54 4.17-3.85 8.65-4.98 12.7-0.7 4.18-1.69 7.99-1.59 11.67-0.08 3.64 0.02 6.94 0.12 9.8 0.35 2.77 0.85 5.18 1.2 7.16 0.76 3.97 1.33 6.25 1.33 6.25"
        fill="#29202e"/>
      <path d="m4304.3 3733.2s0.6-2.26 1.42-6.21c0.37-1.98 0.82-4.38 1.34-7.14 0.78-2.62 1.67-5.5 2.43-8.6 0.68-3.12 2.48-6.24 3.55-9.64 0.5-1.76 1.71-3.14 2.54-4.76 1-1.5 1.58-3.35 2.88-4.59 1.18-1.32 2.19-2.87 3.46-4.07 1.41-0.98 2.72-2.09 4.03-3.14l4.44-1.97c1.6-0.1 3.1-0.73 4.72-0.67 3.23 0 6.53 0.85 9.8 2.25 1.55 0.95 3.16 1.76 4.77 2.62 1.48 1.19 2.93 2.36 4.36 3.52 2.72 2.51 5.28 5.31 7.61 8.05 1.95 3.04 4.36 5.64 5.98 8.49 1.58 2.84 3.19 5.44 4.64 7.76l3.18 6.36c1.84 3.55 3.03 5.62 3.03 5.62s-0.04-2.3-0.37-6.37c-0.21-2.02-0.32-4.55-0.83-7.37-0.65-2.77-1.42-5.93-2.43-9.37-0.93-3.46-2.78-6.96-4.51-10.76-2.07-3.62-4.42-7.54-7.64-11.03l-5.2-5.2c-2.05-1.52-4.27-2.93-6.51-4.33-4.75-2.51-10.29-4.09-16.18-4.11-2.88-0.01-5.79 0.9-8.63 1.45-2.7 1-5.19 2.54-7.68 3.86-2.15 1.72-4.08 3.66-5.98 5.52-1.69 1.99-2.9 4.21-4.29 6.26-2.55 4.17-3.85 8.65-4.98 12.71-0.7 4.16-1.7 7.98-1.59 11.66-0.09 3.64 0.02 6.94 0.11 9.79 0.35 2.78 0.85 5.18 1.21 7.17 0.76 3.97 1.32 6.24 1.32 6.24"
        fill="#29202e"/>
      <path d="m4453.8 3766.9c3.16-10.62 5.56-21.32 7.68-32.04 1.08-5.36 2.13-10.72 2.97-16.1 0.88-5.38 1.88-10.75 2.56-16.14 1.6-10.77 2.91-21.57 3.99-32.39 1.29-10.8 1.88-21.67 2.78-32.5l0.32-3.83-2.46-2.29c-6.62-6.17-13.4-12.2-20.54-17.88-7.19-5.63-14.57-11.09-22.72-15.79 4.41 8.31 9.6 15.88 14.97 23.27 5.42 7.34 11.2 14.33 17.13 21.17l-2.14-6.11c-1.14 10.81-2.59 21.6-3.35 32.45-0.96 10.83-1.69 21.68-2.13 32.56-0.34 5.43-0.36 10.89-0.51 16.34-0.18 5.44-0.15 10.9-0.1 16.37 0.08 10.93 0.43 21.88 1.55 32.91"
        fill="#e36e66"/>
      <path d="m4104.7 3721.6c-0.31 4.39-0.04 8.81 0.54 13.23 0.56 4.41 1.46 8.88 3.29 13.21 1.79 4.25 4.47 8.84 9.6 11.57 2.52 1.34 5.54 1.93 8.36 1.77 2.84-0.18 5.36-1.07 7.73-2.05l2.09-0.88 0.37-2.68c2.65-19.56 4.44-39.19 5.06-58.94l0.11-3.34-2.87-0.81c-5.79-1.65-13.15-5.07-13.26-9.86-0.15-2.53 1.78-5.64 4.09-8.13 2.38-2.52 5.14-4.85 7.97-7.13-3.38 1.32-6.7 2.9-9.75 5.11-2.95 2.19-6.24 4.87-7.29 9.64-0.4 2.36 0.2 4.93 1.31 6.93 1.12 2.03 2.6 3.64 4.16 4.99 3.22 2.68 6.56 4.46 10.42 6l-2.76-4.14c-3.06 19.52-4.94 39.15-5.97 58.86l2.46-3.55c-3.22 1.64-6.26 2.43-9.03 1.35-2.81-1.05-5.51-3.94-7.63-7.34-4.21-6.95-6.86-15.35-9-23.81"
        fill="#e96755"/>
      <path d="m4283.2 3807.7s0.92 2.09 3.27 5.28c2.37 3.12 6.11 7.52 11.68 11.51 2.69 2.17 5.92 4.03 9.41 5.99 3.62 1.55 7.44 3.59 11.72 4.58 4.22 1.33 8.71 2.19 13.37 2.54 4.63 0.79 9.37 0.07 14.1 0.03 4.64-0.74 9.33-1.51 13.74-2.78 4.32-1.54 8.62-3 12.46-4.93 3.78-2.08 7.33-4.23 10.62-6.3 3.11-2.33 5.83-4.84 8.33-7.07 2.58-2.11 4.67-4.36 6.32-6.58 1.75-2.08 3.12-4.04 4.26-5.6 2.25-3.19 3.36-5.11 3.36-5.11s-2.24 0.63-5.85 1.92c-3.7 1.15-8.34 3.64-14.3 5.48-2.93 0.99-6.01 2.16-9.2 3.38-3.31 0.91-6.71 1.92-10.14 3.09-3.48 1.01-7.13 1.54-10.7 2.59-3.62 0.56-7.3 1.12-10.98 1.69-3.69 0.04-7.38 0.8-11.01 0.52-1.82-0.07-3.64-0.06-5.45-0.02-1.8-0.16-3.58-0.32-5.32-0.47-3.57-0.11-6.91-0.99-10.25-1.35-3.21-0.79-6.48-1.17-9.35-2.03-11.67-2.96-20.09-6.36-20.09-6.36"
        fill="#29202e"/>
      <path d="m4425.7 3578.2s6.91-3.7 16.3-10.51c4.74-3.44 10.06-7.35 15.59-12.68 0.74-0.82 1.33-1.24 2.39-2.92l0.45-0.94c0.3-0.93 0.54-2.54-0.32-4-0.55-1.03-1.91-2.02-3.02-2.23-0.95-0.19-0.75-0.08-1.19-0.11l-0.87 0.07-0.42 0.08 0.25-0.07-1.39 0.06c-1.85 0.1-3.72 0.2-5.61 0.31-3.77 0.27-7.59 0.54-11.42 0.81-15.32 1.44-30.35 3.41-41.55 5.28-11.24 1.9-18.8 4.05-18.8 4.05s7.74 1.14 19.44 1.53c5.84 0.24 12.7 0.34 19.98 0.16 7.23-0.21 14.87-0.81 22.53-1.37 3.81-0.38 7.61-0.77 11.36-1.15 1.87-0.22 3.73-0.44 5.56-0.66l1.37-0.18 0.42-0.08-0.25 0.06-0.53 0.03-0.85-0.12c-1.01-0.15-2.28-1.08-2.74-2.05-0.76-1.29-0.6-2.62-0.32-3.35l0.14-0.32-0.97 1.33c-4.35 5.1-9.17 10.02-12.95 14.29-7.78 8.48-12.58 14.68-12.58 14.68"
        fill="#e36e66"/>
      <path d="m4200.2 513.4 19.2-112.49s-403.3-192.04 87.8-46.64l16.46 194.79-123.46-35.661"
        fill="#f78e92"/>
      <path d="m4212.8 439.79-1.87 10.949 1.87-10.949m101.71 0.633 1.27 15.008-1.27-15.008"
        fill="#d1ced0"/>
      <path d="m4212.8 439.79-1.87 10.949 104.85 4.692-1.27-15.008c-19.89 0.277-40.16 1.219-60.34 1.219-13.88 0-27.73-0.45-41.37-1.852"
        fill="#ee7c7e"/>
      <path d="m4310 398.17-2.74-43.902s-222.23-87.79-246.92-57.61 132.48 90.801 132.48 90.801-50.17-49.652 117.18 10.711"
        fill="#29202e"/>
      <path d="m4625.5 513.4-19.2-112.49s403.3-192.04-87.8-46.64l-16.46 194.79 123.46-35.661"
        fill="#f78e92"/>
      <path d="m4612.9 439.79 2.02 11.84-2.02-11.84m-101.71 0.633-1.69 20 1.69-20"
        fill="#d1ced0"/>
      <path d="m4612.9 439.79c-13.64 1.402-27.49 1.852-41.37 1.852-20.18 0-40.45-0.942-60.34-1.219l-1.69 20 105.42-8.793-2.02-11.84"
        fill="#ee7c7e"/>
      <path d="m4515.8 398.17 2.74-43.902s222.23-87.79 246.92-57.61-132.48 90.801-132.48 90.801 50.17-49.652-117.18 10.711"
        fill="#29202e"/>
      <path d="m4801.1 2540.9h-770.16s-108.26-119.5-86.31-432.26c21.95-312.77 163.13-791.36 163.13-791.36s-87.79-208.51-21.95-482.87c65.85-274.35 115.23-384.09 115.23-384.09l122.68 5.48 101.76 1490.2 7.98-3.19 65.85-1481.5 131.69-10.969s49.38 109.74 115.22 384.09c65.85 274.36-21.94 482.87-21.94 482.87s142.94 458.18 164.89 770.94c21.95 312.77-88.07 452.68-88.07 452.68"
        fill="#704e61"/>
      <path d="m4107.7 1317.3s-141.18 478.59-163.13 791.36c-0.02 0.29-0.04 0.59-0.06 0.89 0.02-0.31 0.04-0.59 0.06-0.89 21.95-312.77 163.13-791.36 163.13-791.36m-163.21 792.52c-0.01 0.19-0.02 0.39-0.04 0.59 0.02-0.21 0.03-0.38 0.04-0.59m-0.07 1.05c-0.01 0.13-0.02 0.26-0.03 0.4 0.01-0.14 0.02-0.27 0.03-0.4m-0.06 0.96c-0.01 0.09-0.02 0.19-0.02 0.28 0-0.08 0.01-0.2 0.02-0.28m-0.07 0.93c0 0.06-0.01 0.12-0.01 0.17 0-0.05 0.01-0.11 0.01-0.17m-0.06 0.95v0.01-0.01"
        fill="#d1ced0"/>
      <path d="m4201 450.3s-49.38 109.74-115.23 384.09c-17.94 74.75-24.47 144.62-24.49 206.71-0.03 165.79 46.44 276.16 46.44 276.16s-141.18 478.59-163.13 791.36c-0.02 0.3-0.04 0.58-0.06 0.89 0 0.09-0.01 0.18-0.02 0.27-0.01 0.21-0.02 0.38-0.04 0.59-0.01 0.15-0.02 0.3-0.03 0.46-0.01 0.13-0.02 0.26-0.03 0.4-0.01 0.18-0.02 0.38-0.03 0.56-0.01 0.08-0.02 0.2-0.02 0.28-0.02 0.22-0.03 0.43-0.05 0.65 0 0.06-0.01 0.12-0.01 0.17-0.02 0.26-0.03 0.52-0.05 0.78v0.01c-4.63 70.09-2.66 130.24 3.09 181.55 125.52-145.42 296.13-253.71 474.76-320.04 0-12.55 0.89-25.03 2.78-37.39l-101.2-1482-7.91-0.351-104.85-4.692-9.92-0.437"
        fill="#604557"/>
      <path d="m4555.3 2470.9c-7.56 0-15.12 0-22.67 0.01-121.8 0.11-242.78 5.38-364.04 17.09-53.61 5.18-107.1 11.5-160.54 18.28 8.08 14.59 14.92 24.37 18.96 29.72 178.26-29.82 354-38.39 497.14-38.39 137.72 0 245.28 7.93 295.98 12.52 3.25-6.04 6.77-12.98 10.45-20.84-40.31-12.58-85.5-13.57-126.5-15.62-49.54-2.49-99.18-2.77-148.78-2.77"
        fill="#604557"/>
      <path d="m4852.4 3162.3c-140.01 257.93-275.74 243.6-275.74 243.6l0.09-0.9c-140.73-61.6-283.32-117.77-474.5-11.75 0 0-136.35-6.13-236.22-282.09s-115.64-465.19-21.03-501.99c66.53-25.87 177.17 145.68 237.04 249.86l-77.09-319.32c427.24-75.62 846.92-26.47 846.92-26.47-28.94 88.5-59.55 183.8-84.48 261.92 66.51-70.16 139.79-129.63 180.86-106.06 88.05 50.53 44.16 235.27-95.85 493.2"
        fill="#f2515a"/>
      <path d="m4005 2539.8 62.21 257.69-62.21-257.69m922.48 124.14c-42.37 0-103.64 51.81-160.04 111.31 56.4-59.5 117.67-111.31 160.04-111.31 7.59 0 14.58 1.67 20.82 5.25 0.08 0.05 0.16 0.09 0.24 0.14-0.08-0.05-0.16-0.09-0.24-0.14-6.24-3.58-13.23-5.25-20.82-5.25m21.15 5.44c0.05 0.03 0.11 0.06 0.16 0.09-0.06-0.03-0.11-0.06-0.16-0.09m0.27 0.16c0.05 0.02 0.08 0.05 0.13 0.07-0.04-0.02-0.09-0.05-0.13-0.07m0.24 0.14c0.05 0.03 0.09 0.05 0.13 0.08-0.04-0.03-0.08-0.05-0.13-0.08m0.26 0.15c0.03 0.02 0.07 0.05 0.11 0.07-0.04-0.02-0.08-0.05-0.11-0.07m0.24 0.15c0.03 0.02 0.07 0.04 0.1 0.06-0.03-0.02-0.06-0.04-0.1-0.06m0.25 0.15c0.03 0.01 0.05 0.03 0.08 0.04-0.03-0.01-0.05-0.03-0.08-0.04m0.24 0.14c0.02 0.01 0.03 0.02 0.05 0.03-0.02-0.01-0.03-0.02-0.05-0.03"
        fill="#d1ced0"/>
      <path d="m4524.1 2497.6c-149.02 0-333.36 9.29-519.11 42.17l62.21 257.69c69.55 27.42 113.9 114.38 144.68 187.13 126.69-20.56 249.07-78.32 375.59-78.32 38.45 0 77.29 5.34 116.74 18.67 84.14 28.45 142.19 91.55 185.8 164.99 108.53-217.96 137.35-372.64 60.16-419.66-0.02-0.01-0.03-0.02-0.05-0.03-0.05-0.03-0.11-0.07-0.16-0.1-0.03-0.01-0.05-0.03-0.08-0.04l-0.15-0.09c-0.03-0.02-0.07-0.04-0.1-0.06-0.04-0.03-0.09-0.06-0.13-0.08s-0.08-0.05-0.11-0.07c-0.04-0.02-0.09-0.05-0.13-0.07-0.04-0.03-0.08-0.05-0.13-0.08-0.03-0.02-0.07-0.04-0.11-0.07-0.05-0.02-0.08-0.05-0.13-0.07-0.04-0.02-0.08-0.05-0.11-0.07-0.05-0.03-0.11-0.06-0.16-0.09-0.03-0.02-0.06-0.03-0.09-0.05-0.08-0.05-0.16-0.09-0.24-0.14-6.24-3.58-13.23-5.25-20.82-5.25-42.37 0-103.64 51.81-160.04 111.31 24.93-78.12 55.54-173.42 84.48-261.92 0 0-134.06-15.7-327.81-15.7"
        fill="#f14b4f"/>
      <path d="m4607.4 3141.2c-2.44-10.3-12.77-16.68-23.07-14.24l-100.28 23.71c-10.31 2.43-16.68 12.76-14.25 23.06l59 249.54c2.44 10.3 12.77 16.68 23.07 14.24l100.28-23.71c10.3-2.43 16.68-12.76 14.25-23.06l-59-249.54"
        fill="#29202e"/>
      <path d="m4807.1 2677.9s84.44-89.98 154.73-7.1-269.35 589.07-269.35 589.07-23.08 29.11-55.44 41.05c-32.35 11.94-181.88 45.06 3.53-26.3 0 0-312.28 62.3 10.14-24.33 0 0-267.81 19.43 7.75-30.8 0 0-224.9-3.76-20.38-23.36 0 0 36.67-219.4 169.02-518.23"
        fill="#f78e92"/>
      <path d="m4360.7 3300.9c-32.35-11.94-55.43-41.05-55.43-41.05s-535.8-541.5-465.51-624.38c70.29-82.87 231.28 36.8 231.28 36.8 210.26 220.77 294.91 508.13 294.91 508.13 113.99 30.91 62.7 59.48 62.7 59.48 42.7 29.89-15.68 28.77-29.27 26.27 9.39 1.95 34.34 1.65 35.7 21.96 0.29 4.45-10.21 11.69-14.47 12.86 192.9 99.67-32 10.23-59.91-0.07"
        fill="#f78e92"/>
      <path d="m2722.7 210.31c-362.49 0-656.35 53.3-656.35 119.04 0 65.75 293.86 119.05 656.35 119.05 51.15 0 100.94-1.058 148.73-3.066 3.89-34.031 8.27-56.91 13.14-57.883 9.62-1.929 197.58-23.738 308.51-23.75 71.22 0 110.66 9 50.79 38.031 84.8-20.058 135.17-45.148 135.17-72.378 0-65.743-293.85-119.04-656.34-119.04"
        fill="#dbdada"/>
      <path d="m2849.3 762.82c3.92-11.769 15.62-371.45 35.24-375.37 19.62-3.929 781.01-90.597 117.88 93.821l31.3 611.16-184.42-329.61"
        fill="#f6826f"/>
      <path d="m2862.9 466.84s9.62-91.418 21.65-91.418 377.7-38.492 394.54-2.41c16.84 36.09-247.79 108.26-247.79 108.26l-33.68-43.301-134.72 28.871"
        fill="#5b94c0"/>
      <path d="m3264.7 394.83-0.04-0.168c-16.07-34.43-349.54-0.98-390.5 2.16 3.08-12.379 6.62-21.398 10.4-21.398 12.03 0 377.7-38.492 394.54-2.41 2.96 6.347-2.92 13.828-14.4 21.816"
        fill="#fff"/>
      <path d="m2559 696.12-35.31-290.37s-204.04-180.49-286.45-180.49c-82.4 0 168.73 239.35 168.73 239.35l-35.31 600.35 188.34-368.84"
        fill="#f6826f"/>
      <path d="m2364.9 433.16 76.98-33.68 91.42 60.141-4.82-62.551s-262.22-216.51-305.52-175.62c-43.3 40.903 141.94 211.71 141.94 211.71"
        fill="#5b94c0"/>
      <path d="m2230.2 250.32c-4.1 3.871-6.14 8.918-6.49 14.86-8.6-18.84-10.44-34.559-0.73-43.731 43.3-40.89 305.52 175.62 305.52 175.62l1.89 24.512c-37-30.062-260.5-208.75-300.19-171.26"
        fill="#fff"/>
      <path d="m2357.3 2382.5s-42.96-1265.6-14.32-1782.6c0 0 64.44-77.16 229.11-7.711l178.99 1458.5 85.92-1458.5s85.91-61.738 200.47 15.43l64.43 1913.8-744.6-138.9"
        fill="#fcd0b0"/>
      <path d="m2921.3 568.78c-51.72 0-84.26 23.379-84.26 23.379l-84.47 1433.9 336.64 117.25-51.7-1535.7c-44.06-29.68-83.88-38.809-116.21-38.809"
        fill="#f2c0a0"/>
      <path d="m3096.2 2351.6 1.64 48.79-1.64-48.79"
        fill="#e7e5e5"/>
      <path d="m2728.4 2208.5c-98.05 0-220.17 22.73-373.93 85 0.89 29.21 1.62 52 2.11 67.2l414.59-117.02 10.17 133.72 37.27-126.58 279.22 149.61-1.64-48.79c-64.56-45.43-164.45-143.15-367.79-143.14"
        fill="#f2c0a0"/>
      <path d="m2727.4 3574.6-9.2 203.6-220.16 80.94 12.43-281.31-179.46-75.16 383.15-196.94 190.29 234.23-177.05 34.64"
        fill="#f6826f"/>
      <path d="m2726.6 3592.4-8.39 185.76-220.16 80.94 220.16-80.94 8.39-185.76m-219.72 66.76-8.83 199.94 8.83-199.94"
        fill="#ee9685"/>
      <path d="m2726.6 3592.4c-75.85 12.53-149.92 33.14-219.72 66.76l-8.83 199.94 220.16-80.94 8.39-185.76"
        fill="#f46f53"/>
      <path d="m2522.5 3737.1s62.75-118.26 240.82-86.92c125.4 22.07 134.76 199.29 116.9 374.63-27.79 273-116.86 284.09-250.3 263.59-302.21-46.44-107.42-551.3-107.42-551.3"
        fill="#f6826f"/>
      <path d="m2432 4260.5c46.01-40.9 49.7-9.51 94.23-52.03 45.93-179.52-18.86-216.26-18.86-216.26l2.36-75.71-28.57-3.19 18.83-108.88s-82.92 92.54-124.22 277.68c-30.79 138.06 13.58 180.32 56.23 178.39"
        fill="#7a3134"/>
      <path d="m2498.1 3842.8-25.17 166.03s-61.88 15.17-65.5-40.3 37.81-122.46 90.67-125.73"
        fill="#f6826f"/>
      <path d="m2515.4 4204.3s98.89-71.75 224.92-67.87l-36.84 21.33s91.13-21.33 211.34 1.94c0 0 1.94 93.07-83.37 149.3 0 0 63.98-42.66 93.07-77.56 0 0-46.54 168.69-275.33 168.69-228.8 0-228.8-147.36-221.04-209.4 7.75-62.05 87.25 13.57 87.25 13.57"
        fill="#7a3134"/>
      <path d="m2751.9 3843.6c17.27 11.33 35.4 20.57 53.65 29.51l-3.81-8.41c-5.91 15.47-11.64 31.01-17.02 46.67-2.81 7.78-5.33 15.67-7.92 23.53-2.57 7.87-5.24 15.71-7.58 23.66-4.91 15.81-9.53 31.73-13.78 47.77-4.28 16.03-8.17 32.19-11.29 48.62 7.54-14.93 14.31-30.11 20.7-45.42 6.41-15.31 12.45-30.74 18.21-46.27 2.98-7.72 5.65-15.56 8.42-23.36 2.74-7.81 5.55-15.6 8.07-23.49 5.28-15.69 10.22-31.5 14.97-47.37l1.93-6.45-5.74-1.96c-19.23-6.57-38.59-12.85-58.81-17.03"
        fill="#de6045"/>
      <path d="m2779.8 4014.2s0.68-2.21 2.14-5.87c1.45-3.65 3.61-8.81 6.84-14.35 3.23-5.49 7.63-11.46 13.51-15.35 5.77-4.06 13.01-5.46 20.67-4.8l2.72 0.31 3.31 0.56c1.74 0.39 3.49 0.8 5.32 1.41 3.56 1.15 6.82 2.71 9.65 4.67 5.61 4 9.58 9.71 12.07 15.42 2.48 5.71 3.76 11.11 4.55 14.94 0.76 3.85 1.02 6.18 1.02 6.18s1.01-2.12 1.89-6.13c0.88-4 1.68-9.96 0.52-17.26-1.03-7.19-4.64-16.14-12.22-22.81-3.67-3.4-8.22-5.98-12.99-7.77-2.35-0.85-4.91-1.54-7.54-2.12l-3.32-0.55c-1.58-0.24-2.63-0.27-3.98-0.4-10.21-0.93-21.51 2.52-28.89 9.19-7.38 6.68-11.11 14.79-13.12 21.61-2.02 6.88-2.44 12.73-2.5 16.77 0 4.07 0.35 6.35 0.35 6.35"
        fill="#161118"/>
      <path d="m2627.9 4002.2s0.71-2.19 2.21-5.84c1.49-3.64 3.7-8.77 7-14.27 3.3-5.45 7.76-11.37 13.69-15.19 5.81-4 13.07-5.3 20.72-4.56l2.72 0.33 3.3 0.61c1.73 0.41 3.49 0.84 5.31 1.48 3.54 1.18 6.78 2.77 9.59 4.77 5.57 4.07 9.47 9.82 11.89 15.56s3.63 11.15 4.38 15c0.71 3.85 0.95 6.19 0.95 6.19s1.03-2.11 1.96-6.12c0.92-3.98 1.79-9.93 0.72-17.24-0.95-7.21-4.45-16.2-11.95-22.96-3.63-3.44-8.16-6.07-12.91-7.92-2.34-0.87-4.89-1.59-7.52-2.21l-3.3-0.58c-1.58-0.26-2.63-0.3-3.98-0.45-10.2-1.05-21.54 2.28-29 8.85-7.45 6.6-11.28 14.67-13.37 21.46-2.09 6.86-2.58 12.7-2.69 16.75-0.05 4.06 0.28 6.34 0.28 6.34"
        fill="#161118"/>
      <path d="m2721 4085.1s-2.64-0.17-6.73-0.41c-4.17-0.35-9.75-0.66-16.14-1.28-6.37-0.62-13.41-1.07-20.78-1.93-7.24-0.78-14.97-1.61-22.7-2.45-3.84-0.59-7.7-1.03-11.55-1.44-3.79-0.73-7.65-0.99-11.41-1.44-3.72-0.63-7.43-1.03-11.04-1.33-3.58-0.38-6.99-0.92-10.28-1.15-6.68-0.29-12.29-1.07-16.58-1.05-4.22-0.11-6.91 0.13-6.91 0.13s1.2 2.27 3.76 5.73c2.59 3.4 6.34 8.43 11.94 12.93 2.78 2.26 5.82 4.78 9.3 7.01 3.53 2.09 7.36 4.2 11.43 6.17 4.14 1.81 8.59 3.35 13.15 4.74 4.59 1.34 9.44 2 14.24 2.89 4.89 0.26 9.77 0.8 14.6 0.48 4.84-0.27 9.58-0.64 14.1-1.73 9.05-1.71 17.13-5.18 23.51-8.87 3.2-1.9 5.96-3.93 8.28-5.9 2.39-1.76 4.2-3.9 5.69-5.44 2.94-3.31 4.12-5.66 4.12-5.66"
        fill="#29202e"/>
      <path d="m2874.2 4090.4s-2.2-0.1-6.04-0.28c-3.74-0.26-8.71-0.5-14.35-1.05-5.64-0.57-11.81-0.97-18.25-1.83-3.2-0.22-6.49-0.92-9.79-1.16-3.3-0.45-6.65-0.91-10-1.37-3.38-0.52-6.76-1.02-10.09-1.52-3.31-0.76-6.72-1-10.01-1.55-3.27-0.65-6.54-1.09-9.73-1.44-3.15-0.5-6.18-1.01-9.11-1.32-5.94-0.41-10.92-1.32-14.77-1.38-3.79-0.21-6.21-0.06-6.21-0.06s0.94 2.11 3.06 5.34c2.16 3.16 5.22 7.9 10.04 12.16 2.38 2.17 5.01 4.52 8 6.71 3.09 2 6.44 4.04 10.03 5.96 3.61 1.83 7.6 3.29 11.66 4.69 4.07 1.41 8.46 2.05 12.76 2.97 8.77 1.05 17.75 1.01 25.94-0.79 8.19-1.51 15.47-4.78 21.15-8.22 5.68-3.57 9.75-7.56 12.25-10.6 2.52-3.09 3.46-5.26 3.46-5.26"
        fill="#29202e"/>
      <path d="m2826.6 3811.2-200.2-3.41s2.32-85.78 105.44-82.15c92.97 3.26 94.76 85.56 94.76 85.56"
        fill="#d2404e"/>
      <path d="m2756.9 3744.7c-17.32 35.68-76.17 45.43-109.71 30.38-3.37-1.52-6.44-3.46-9.22-5.65-11.08 19.59-11.59 38.34-11.59 38.34l200.2 3.41s-1.43-64-65.56-81.34c-0.44 4.99-1.79 10.05-4.12 14.86"
        fill="#5c111b"/>
      <path d="m2480.4 3870.8c-5.83 0.19-11.59 1.32-17.24 3.35-2.86 0.94-5.6 2.37-8.34 4.03-2.64 1.88-5.5 3.81-7.52 7.25-2.1 3.16-3.48 7.79-2.74 12.03 0.23 1.17 0.12 1.89 0.71 3.43l0.69 2c0.54 1.4 0.75 2.51 1.55 4.15 0.88 1.7 1.82 3.4 2.82 5.07 1.25 1.52 2.43 3.06 3.95 4.47 1.74 1.33 3.45 2.62 5.78 3.45 2.38 0.85 4.26 1.47 8.28 1.01l-9.25-7.91-1.85 20.69c-0.89 6.87-1.39 13.8-2.73 20.41-0.51 3.34-1.18 6.62-2.11 9.68-0.91 3.03-1.92 6.05-3.41 8.06-0.75 1.02-1.43 1.76-2.35 2.21-0.89 0.54-2.19 0.51-3.64 0.21-2.97-0.64-6.09-2.66-9.14-4.71 1.68 3.28 3.58 6.59 7.07 9.12 1.77 1.16 4.08 2.2 6.75 2.03 2.61-0.08 5.19-1.17 7-2.63 1.93-1.43 3.41-3.09 4.68-4.75 1.32-1.68 2.43-3.4 3.33-5.17 1.87-3.53 3.35-7.1 4.63-10.68 2.29-7.24 4.19-14.46 5.17-21.77 1.14-7.33 1.92-14.51 2.07-22.04l-9.25-7.93c1.24-0.22 0.23 0.05 0.04-0.21l-1.47-0.77-1.87-1.6-1.61-2.1c-0.61-0.79-1.22-2.4-1.83-3.56l-0.92-1.9-0.26-0.66-0.49-1.91 0.44-2.27c0.26-0.84 0.75-1.7 1.36-2.63 0.45-0.97 1.39-1.82 2.08-2.78 1.68-1.8 3.63-3.52 5.73-5.22 4.22-3.35 8.95-6.43 13.89-9.45"
        fill="#de6045"/>
      <path d="m3210 2739.8s-110.8-23.46-159.75 369.93l140.47 102.27s66.61-124 101.19-231.73c34.57-107.73-81.91-240.47-81.91-240.47"
        fill="#f6826f"/>
      <path d="m3206.5 2739.5c-11.45 0-48.76 6.56-86.38 84.88 1.77 111.13 2.17 229.61-0.59 335.71l71.26 51.88s66.61-124 101.19-231.73c4.45-13.89 6.4-28.19 6.41-42.57 0.07-97.17-88.32-197.9-88.32-197.9s-1.26-0.27-3.57-0.27"
        fill="#f46f53"/>
      <path d="m3067.2 3501.2s112.53-168.17 150.37-306.91c0 0-69.52-63.61-144.34-76.13s-6.03 383.04-6.03 383.04"
        fill="#5b94c0"/>
      <path d="m3219.7 3211.7s-121.93-116.75-278.64-157.55l13.44-41.43s129.46-8.08 301.71 133.39l-36.51 65.59"
        fill="#67a9ce"/>
      <path d="m3422 3373c-4.6-11.02-17.27-16.22-28.29-11.62l-107.26 44.79c-11.03 4.6-16.23 17.26-11.63 28.29l111.45 266.91c4.6 11.02 17.26 16.22 28.29 11.62l107.26-44.79c11.02-4.6 16.22-17.26 11.62-28.29l-111.44-266.91"
        fill="#29202e"/>
      <path d="m3123.4 2862.6s-0.48-145.91 127.24-131.74 246.8 725.1 246.8 725.1 3.79 43.75-14.32 80.29c-18.12 36.54-119.77 186.44-18.33-25.47 0 0-217.85 307.13-11.04-29.14 0 0-214.44 234.16-18.35-32.78 0 0-196.38 179.4-36.48-3.52 0 0-146.64-218.39-275.52-582.74"
        fill="#f6826f"/>
      <path d="m2493.6 3584.6 163.31-104.22 71.95-139.55 71.62 236.67s198.92 0.57 276.45-87.24c77.53-87.8 30.46-1084.7 30.46-1084.7l-288.69-154.69-37.27 126.58-10.17-133.72-444.62 125.5s-92.04 1069-10.82 1138.1c68.28 58.14 177.78 77.23 177.78 77.23"
        fill="#5b94c0"/>
      <path d="m2728.8 3340.8-67.2 147.4-177.59 157.2-48.86-67.93 176.89-192.7 44.07 89.84 72.69-133.81"
        fill="#67a9ce"/>
      <path d="m2809.2 3608.1-67.32-126.49-10.69-138.49 31.06 109.3 49.31-41.59 39.45 162.8-41.81 34.47"
        fill="#67a9ce"/>
      <path d="m2721.2 3289.6c-0.04-12.09 9.72-21.92 21.81-21.96s21.92 9.73 21.96 21.81c0.04 12.09-9.73 21.92-21.81 21.96-12.09 0.04-21.92-9.72-21.96-21.81"
        fill="#67a9ce"/>
      <path d="m2764.6 2450.4c-0.04-12.09 9.72-21.92 21.81-21.96s21.92 9.73 21.96 21.82-9.73 21.92-21.81 21.96c-12.09 0.04-21.92-9.73-21.96-21.82"
        fill="#67a9ce"/>
      <path d="m2760.4 2657.1c-0.04-12.08 9.72-21.91 21.81-21.95s21.92 9.72 21.96 21.81-9.73 21.92-21.81 21.96c-12.09 0.04-21.92-9.73-21.96-21.82"
        fill="#67a9ce"/>
      <path d="m2761.1 2873.6c-0.04-12.09 9.73-21.92 21.82-21.96 12.08-0.04 21.92 9.73 21.96 21.81 0.04 12.09-9.73 21.92-21.82 21.96s-21.92-9.72-21.96-21.81"
        fill="#67a9ce"/>
      <path d="m2744 3105.8c-0.04-12.09 9.73-21.92 21.82-21.96 12.08-0.04 21.92 9.73 21.96 21.82 0.04 12.08-9.73 21.92-21.82 21.96s-21.92-9.73-21.96-21.82"
        fill="#67a9ce"/>
      <path d="m2891.4 3281.7 175.21 33.47 4.62-72.98-180.04-23.72 0.21 63.23"
        fill="#67a9ce"/>
      <path d="m2284.1 3502.6s-584.83-357.98-546.5-533.2 460.23-551.12 528.38-531.89c68.16 19.23 68.29 58.14 68.29 58.14s237.8-156.43 9.8 24.29c0 0 286.56-122.55 9.88 43.74 0 0 325.64-69.17 0.12 38.9 0 0 253.04 38.08-4.75 34.07 0 0-48.62 5.02-92.66-77.52l-246.71 404.51s297.32 193.56 360.78 261.45c63.45 67.88-86.63 277.51-86.63 277.51"
        fill="#f6826f"/>
      <path d="m2233.3 3115.8 0.18 0.12-0.18-0.12m0.27 0.19c17.07 12.23 33.71 24.37 49.3 36.03-15.6-11.67-32.23-23.8-49.3-36.03m50.56 386.61h0.01-0.01m0.01 0v0.01-0.01m0.01 0.01m0.01 0"
        fill="#ee9685"/>
      <path d="m2282.8 3152c37.9 28.36 69.66 53.99 86.58 71.66-16.93-17.67-48.68-43.3-86.58-71.66m86.59 71.67c0.12 0.13 0.25 0.27 0.37 0.4-0.12-0.13-0.25-0.27-0.37-0.4m0.39 0.41c0.12 0.13 0.25 0.26 0.36 0.39-0.12-0.13-0.24-0.26-0.36-0.39m0.38 0.4c0.12 0.13 0.24 0.26 0.36 0.38-0.12-0.12-0.24-0.25-0.36-0.38m0.38 0.41c0.06 0.07 0.12 0.13 0.18 0.19 11.09 11.86 15.65 28.06 15.64 46.71 0.01-18.65-4.55-34.85-15.64-46.71-0.06-0.06-0.12-0.13-0.18-0.19"
        fill="#a46d6e"/>
      <path d="m2087.3 3014.8c-8 7.69-15.81 15.45-23.35 23.27-55.43 57.56-110 132.69-128.3 213.78 155.61 132.3 345.78 248.99 348.49 250.65h0.01v0.01h0.01 0.01s102.19-142.75 102.27-230.8c0.01-18.65-4.55-34.85-15.64-46.71-0.06-0.06-0.12-0.12-0.18-0.19 0-0.01-0.02-0.02-0.02-0.03-0.12-0.12-0.24-0.25-0.36-0.38-0.01 0-0.01-0.01-0.02-0.01-0.11-0.13-0.24-0.26-0.36-0.39-0.01-0.01-0.01-0.01-0.02-0.01-0.12-0.13-0.25-0.27-0.37-0.4-0.01 0-0.01-0.01-0.01-0.01-16.92-17.67-48.68-43.3-86.58-71.66-15.59-11.66-32.23-23.8-49.3-36.03-0.03-0.02-0.06-0.04-0.09-0.07l-0.18-0.12c-50.04-35.85-103.79-72.53-146.01-100.9"
        fill="#f46f53"/>
      <path d="m2435.2 3577.4s-93.71-26.44-188.71-73.54c-95-47.11-230.38-170.69-230.38-170.69s43.16-186.18 174.17-281.45c0 0 281.4 159.57 281.61 221.58 0.2 62.01-36.69 304.1-36.69 304.1"
        fill="#5b94c0"/>
      <path d="m2034.4 3355s50.48-178.91 170.45-303.33l-32.94-32.72s-120.17 62.41-203.31 292.49l65.8 43.56"
        fill="#67a9ce"/>
      <path d="m971.3 210.31c-325.27 0-588.95 53.3-588.95 119.04 0 47.179 135.75 87.937 332.58 107.21l0.312-6.137-123.7-78.813 249.42 61.789c2.363 10.872 4.668 21.704 6.894 32.383 39.813 1.719 81.102 2.617 123.45 2.617 67.715 0 132.76-2.308 193.32-6.558l-5.27-60.551-133.37-61.039 255.55 26.898c9.97 27.141 19.37 53.672 28.26 79.641 151.47-21.539 250.47-57.148 250.47-97.437 0-65.743-263.68-119.04-588.96-119.04"
        fill="#dbdada"/>
      <path d="m856.82 1411.7s136.53-297.01-15.859-998.31l-249.42-61.789 123.7 78.813-48.031 939.2 189.61 42.09"
        fill="#f78e92"/>
      <path d="m698.82 751.66-4.168 81.531c19.891-1.82 39.118-2.613 57.473-2.613h0.051 0.043c64.113 0 117.86 9.633 154.36 18.731-0.859-11.528-1.816-23.27-2.871-35.188-62.449-33.262-134.11-48.941-204.88-62.461"
        fill="#ee7c7e"/>
      <path d="m678.09 405.05s-174.44-81.512-84.289-82.891c90.16-1.379 246.03 67.449 246.03 67.449l1.137 23.789s-232.21-62.238-162.88-8.347"
        fill="#29202e"/>
      <path d="m1434.5 1333.8s94.39-312.96-153-986.64l-255.55-26.898 133.37 61.039 81.58 936.89 193.6 15.61"
        fill="#f78e92"/>
      <path d="m1187.2 701.74 8 91.91-8-91.91"
        fill="#d1ced0"/>
      <path d="m1187.2 701.74 8 91.91c63.45-19.918 122.63-25.277 167.96-25.277 16.39 0 30.96 0.699 43.28 1.668-2.45-11.359-5.02-22.891-7.71-34.598-66.43-24.363-139.57-30.043-211.53-33.703"
        fill="#ee7c7e"/>
      <path d="m1119.1 361.28s-184-56.742-94.89-70.511c89.11-13.758 252.96 32.98 252.96 32.98l4.4 23.398s-238.56-29.718-162.47 14.133"
        fill="#29202e"/>
      <path d="m863.48 2690.4 460.41 48.82s487.25-318.98 431.62-703.33c-55.64-384.36-255.46-1070.5-305.3-1260.3 0 0-174.24-37.391-346.78 56.941l102.37 1025.4-238.71-528.63-8.981-464.23s-166.9-68.48-369.44-12.808c0 0-8.75 614.08 25.348 715.57 34.097 101.49 331.95 732.48 331.95 732.48l-82.481 390.01"
        fill="#458582"/>
      <path d="m934.72 2353.6-19.45 91.96 19.45-91.96"
        fill="#d1ced0"/>
      <path d="m934.72 2353.6-19.45 91.96c118.57 26.83 344.58 91.27 507.2 218.76 11.46-9.58 23.54-19.99 36.06-31.18-131.38-155.55-325.98-226.04-523.81-279.54"
        fill="#406f70"/>
      <path d="m906.59 849.32h4e-3c32.672 8.149 51.507 15.879 51.507 15.879l8.981 464.23 238.71 528.63-238.71-528.63-8.981-464.23s-18.828-7.73-51.511-15.879"
        fill="#d1ced0"/>
      <path d="m906.57 849.31v0.011h0.028-4e-3c-4e-3 0-0.016 0-0.024-0.011"
        fill="#ee7c7e"/>
      <path d="m752.22 830.58c64.109 0.012 117.87 9.633 154.36 18.742v-0.011c-36.496-9.098-90.242-18.731-154.36-18.731"
        fill="#c36b70"/>
      <path d="m590.76 851.82c-0.063 8e-3 -0.094 0.02-0.157 0.039 0.063-0.019 0.094-0.031 0.157-0.039m23.312 716.34 0.02 0.05c-4e-3 -0.01-0.016-0.03-0.02-0.05m0.153 0.45c3e-3 0.01 0.011 0.04 0.019 0.06-8e-3 -0.02-0.016-0.05-0.019-0.06m0.086 0.25m0.066 0.2c8e-3 0.02 0.019 0.05 0.027 0.08-8e-3 -0.03-0.015-0.06-0.027-0.08m0.082 0.23c4e-3 0.01 8e-3 0.03 0.012 0.04-4e-3 -0.02-8e-3 -0.02-0.012-0.04m0.078 0.23c8e-3 0.02 0.016 0.05 0.024 0.07-8e-3 -0.02-0.016-0.05-0.024-0.07m0.086 0.25c0 0.01 8e-3 0.02 8e-3 0.02-4e-3 0-4e-3 -0.01-8e-3 -0.02m0.078 0.23 0.024 0.06-0.024-0.06m0.082 0.23c4e-3 0.02 8e-3 0.02 0.012 0.04-4e-3 -0.01-8e-3 -0.02-0.012-0.04m0.078 0.23c8e-3 0.03 0.02 0.05 0.028 0.08-8e-3 -0.03-0.02-0.06-0.028-0.08m0.18 0.51c4e-3 0.01 8e-3 0.03 0.012 0.04-4e-3 -0.01-8e-3 -0.03-0.012-0.04m0.168 0.48c8e-3 0.02 0.012 0.03 0.019 0.05-3e-3 -0.01-0.015-0.04-0.019-0.05m0.094 0.26 4e-3 0.01c-4e-3 0-4e-3 0-4e-3 -0.01m0.086 0.25c4e-3 0.01 4e-3 0.01 7e-3 0.02 0 0-3e-3 -0.01-7e-3 -0.02m0.089 0.25 4e-3 0.01c-4e-3 0 0 0-4e-3 -0.01m0.086 0.24c4e-3 0.02 0.012 0.04 0.016 0.05-4e-3 -0.01-0.012-0.03-0.016-0.05m0.09 0.26c4e-3 0.01 8e-3 0.02 0.012 0.02-4e-3 0-8e-3 -0.01-0.012-0.02m0.09 0.25c0.012 0.03 0.024 0.06 0.035 0.1-0.011-0.04-0.023-0.07-0.035-0.1m0.074 0.2c0.012 0.04 0.024 0.07 0.035 0.1-0.011-0.03-0.027-0.07-0.035-0.1m0.106 0.3c0.012 0.03 0.019 0.06 0.031 0.08-8e-3 -0.02-0.023-0.05-0.031-0.08m0.105 0.29s0 0.01 4e-3 0.01l-4e-3 -0.01m0.086 0.24c0.012 0.03 0.024 0.06 0.035 0.09-0.011-0.03-0.023-0.06-0.035-0.09m0.09 0.25c8e-3 0.02 0.016 0.04 0.023 0.06-7e-3 -0.02-0.015-0.04-0.023-0.06m0.106 0.29c3e-3 0.02 0.011 0.03 0.015 0.05-4e-3 -0.02-0.012-0.04-0.015-0.05m0.199 0.54c4e-3 0.02 8e-3 0.02 0.011 0.03-7e-3 -0.01-7e-3 -0.01-0.011-0.03m0.199 0.55 4e-3 0.01-4e-3 -0.01m0.102 0.28c-4e-3 -0.01 0 0 0 0m0.097 0.26c8e-3 0.02 8e-3 0.02 0.012 0.04-4e-3 -0.02-8e-3 -0.02-0.012-0.04m0.098 0.27 0.012 0.03-0.012-0.03m0.105 0.28c4e-3 0.01 8e-3 0.03 0.016 0.04-4e-3 -0.01-0.016-0.03-0.016-0.04m0.211 0.57c0 0.01 4e-3 0.02 8e-3 0.02-4e-3 0-8e-3 -0.01-8e-3 -0.02m0.102 0.28 8e-3 0.02-8e-3 -0.02m0.105 0.29c4e-3 0 8e-3 0.02 0.012 0.02-4e-3 -0.01-8e-3 -0.02-0.012-0.02m0.313 0.83c8e-3 0.02 0.015 0.04 0.023 0.07-8e-3 -0.03-0.015-0.05-0.023-0.07m0.097 0.27c0.016 0.03 0.032 0.08 0.047 0.11-0.015-0.04-0.027-0.07-0.047-0.11m0.129 0.34c4e-3 0.01 4e-3 0.01 0.012 0.02-4e-3 -0.01-8e-3 -0.02-0.012-0.02m0.118 0.3v0.01-0.01m0.109 0.3m0.898 2.36c0.012 0.04 0.024 0.07 0.035 0.1-7e-3 -0.03-0.027-0.07-0.035-0.1m0.125 0.33c4e-3 0.02 0.012 0.03 0.02 0.05-8e-3 -0.02-0.016-0.03-0.02-0.05m0.36 0.94c0.011 0.03 0.015 0.04 0.023 0.07-8e-3 -0.03-0.012-0.04-0.023-0.07m0.101 0.26c0.02 0.05 0.043 0.12 0.067 0.17-0.028-0.06-0.043-0.11-0.067-0.17m0.399 1.03c0 0.01 4e-3 0.02 8e-3 0.02l-8e-3 -0.02m0.347 0.9c0.012 0.04 0.028 0.08 0.039 0.11-0.011-0.04-0.023-0.07-0.039-0.11m0.145 0.38c0.012 0.02 0.019 0.05 0.031 0.08-0.012-0.03-0.019-0.06-0.031-0.08m0.105 0.27c0.016 0.04 0.039 0.1 0.059 0.15-0.023-0.06-0.039-0.1-0.059-0.15m0.27 0.69c0.012 0.03 0.019 0.06 0.031 0.08-0.012-0.02-0.019-0.05-0.031-0.08m0.074 0.2c0.035 0.09 0.074 0.19 0.109 0.28-0.035-0.1-0.07-0.19-0.109-0.28m0.168 0.43c0.024 0.05 0.039 0.1 0.063 0.15-0.024-0.05-0.039-0.1-0.063-0.15m0.164 0.41c0.012 0.03 0.016 0.04 0.027 0.07-7e-3 -0.02-0.019-0.05-0.027-0.07m0.094 0.25c0.019 0.04 0.043 0.1 0.062 0.15-0.023-0.06-0.039-0.1-0.062-0.15m0.098 0.24c0.043 0.11 0.093 0.24 0.14 0.36-0.051-0.13-0.094-0.24-0.14-0.36m0.148 0.37c0.082 0.22 0.164 0.42 0.246 0.64-0.082-0.21-0.164-0.43-0.246-0.64m0.281 0.73c0.028 0.06 0.047 0.11 0.071 0.18-0.02-0.06-0.047-0.13-0.071-0.18m0.102 0.25c0.043 0.11 0.082 0.21 0.125 0.31-0.039-0.09-0.086-0.21-0.125-0.31m0.191 0.49c0.016 0.03 0.028 0.07 0.043 0.1-0.015-0.03-0.027-0.06-0.043-0.1m0.262 0.66c0.019 0.05 0.043 0.11 0.066 0.17-0.023-0.06-0.047-0.11-0.066-0.17m0.098 0.25c0.05 0.13 0.097 0.24 0.148 0.37-0.051-0.13-0.098-0.25-0.148-0.37m0.164 0.41c0.496 1.25 1.004 2.53 1.527 3.84-0.52-1.3-1.031-2.59-1.527-3.84m1.535 3.85c0.058 0.15 0.117 0.3 0.176 0.44-0.063-0.15-0.114-0.28-0.176-0.44m0.203 0.51c0.18 0.45 0.367 0.91 0.551 1.37-0.184-0.46-0.371-0.92-0.551-1.37m0.601 1.5c0.196 0.48 0.391 0.97 0.59 1.46-0.195-0.49-0.394-0.98-0.59-1.46m0.61 1.51c0.031 0.08 0.062 0.15 0.094 0.23-0.032-0.08-0.067-0.16-0.094-0.23m0.117 0.29c0.098 0.24 0.191 0.47 0.289 0.71-0.094-0.23-0.195-0.48-0.289-0.71m0.293 0.72c0.309 0.77 0.629 1.55 0.945 2.33-0.32-0.79-0.632-1.56-0.945-2.33m0.961 2.37c9.281 22.79 22.074 52.6 37.23 87.03-15.156-34.44-27.949-64.23-37.23-87.03m37.266 87.11c0.023 0.05 0.05 0.11 0.074 0.16-0.031-0.06-0.043-0.09-0.074-0.16m0.199 0.45c0.066 0.15 0.133 0.3 0.199 0.45-0.066-0.15-0.133-0.3-0.199-0.45m0.504 1.14c1.308 2.98 2.636 5.99 3.98 9.03-1.344-3.04-2.672-6.05-3.98-9.03m4.195 9.52c0.297 0.67 0.586 1.32 0.883 1.99-0.293-0.67-0.586-1.33-0.883-1.99m1.051 2.37c0.34 0.77 0.668 1.51 1.008 2.28-0.336-0.76-0.672-1.53-1.008-2.28m1.086 2.45c0.097 0.22 0.183 0.42 0.281 0.64-0.094-0.21-0.191-0.43-0.281-0.64m0.367 0.83c0.082 0.18 0.168 0.38 0.246 0.56-0.074-0.17-0.172-0.39-0.246-0.56m0.324 0.74c0.047 0.1 0.094 0.21 0.141 0.31-0.047-0.1-0.094-0.21-0.141-0.31m0.496 1.12c0.047 0.1 0.09 0.2 0.137 0.3-0.047-0.1-0.09-0.2-0.137-0.3m1.172 2.63c0.035 0.08 0.078 0.18 0.113 0.26-0.039-0.08-0.074-0.17-0.113-0.26m0.199 0.46c0.086 0.19 0.172 0.38 0.258 0.58-0.082-0.19-0.172-0.39-0.258-0.58m0.375 0.84c0.02 0.04 0.035 0.08 0.051 0.12-0.012-0.04-0.031-0.08-0.051-0.12m0.524 1.18c0.027 0.06 0.058 0.13 0.09 0.2-0.032-0.07-0.059-0.13-0.09-0.2m0.594 1.34c0.015 0.04 0.031 0.07 0.05 0.11-0.015-0.04-0.035-0.08-0.05-0.11m0.816 1.84c0.035 0.08 0.062 0.14 0.098 0.22-0.039-0.09-0.059-0.13-0.098-0.22m0.559 1.25c0.015 0.04 0.042 0.1 0.062 0.14-0.023-0.05-0.039-0.09-0.062-0.14m0.121 0.28c0.105 0.23 0.211 0.47 0.32 0.71-0.113-0.25-0.207-0.47-0.32-0.71m0.402 0.89c0.051 0.12 0.086 0.2 0.141 0.32-0.047-0.1-0.094-0.21-0.141-0.32m0.914 2.06c0.023 0.05 0.035 0.08 0.059 0.14-0.016-0.04-0.043-0.1-0.059-0.14m0.219 0.49c0.148 0.34 0.304 0.69 0.453 1.02-0.152-0.34-0.305-0.68-0.453-1.02m0.84 1.89c0.054 0.12 0.105 0.24 0.16 0.36-0.059-0.13-0.106-0.24-0.16-0.36m0.566 1.27c0.133 0.3 0.258 0.58 0.387 0.87l-0.387-0.87m0.637 1.43c0.019 0.04 0.035 0.08 0.054 0.12-0.015-0.04-0.039-0.08-0.054-0.12m0.574 1.29c0.019 0.04 0.047 0.11 0.066 0.15-0.015-0.04-0.05-0.12-0.066-0.15m0.598 1.34 4e-3 0.01c-8e-3 -0.02 3e-3 0.01-4e-3 -0.01"
        fill="#d1ced0"/>
      <path d="m752.17 830.58h-0.051c-48.801 0-103.62 5.594-161.36 21.242-0.063 8e-3 -0.094 0.02-0.157 0.039-0.64 0.172-1.3 0.352-1.945 0.532 0 0-1.008 70.718-1.004 168.12 0 189.63 3.824 480.4 26.352 547.45 0.023 0.07 0.047 0.14 0.066 0.2 4e-3 0.02 0.016 0.04 0.02 0.05 0.043 0.13 0.086 0.26 0.133 0.4 3e-3 0.01 0.011 0.04 0.019 0.06 0.024 0.06 0.043 0.12 0.067 0.19 0.023 0.07 0.042 0.13 0.066 0.2 0.012 0.02 0.019 0.05 0.027 0.08 0.02 0.05 0.035 0.1 0.055 0.15 4e-3 0.02 8e-3 0.02 0.012 0.04 0.023 0.06 0.043 0.12 0.066 0.19 8e-3 0.02 0.016 0.05 0.024 0.07 0.019 0.06 0.042 0.12 0.062 0.18 4e-3 0.01 4e-3 0.02 8e-3 0.02 0.023 0.07 0.047 0.14 0.07 0.21l0.024 0.06c0.015 0.06 0.039 0.12 0.058 0.17 4e-3 0.02 8e-3 0.03 0.012 0.04 0.019 0.06 0.043 0.13 0.066 0.19 8e-3 0.02 0.02 0.05 0.028 0.08 0.05 0.14 0.101 0.29 0.152 0.43 4e-3 0.01 8e-3 0.03 0.012 0.04 0.05 0.14 0.105 0.3 0.156 0.44 4e-3 0.01 0.016 0.04 0.019 0.05 0.024 0.08 0.047 0.14 0.075 0.21 0 0.01 0 0.01 4e-3 0.01 0.027 0.08 0.054 0.16 0.082 0.24 4e-3 0.01 7e-3 0.02 7e-3 0.02 0.028 0.08 0.055 0.15 0.082 0.23 4e-3 0.01 0 0.01 4e-3 0.01 0.028 0.08 0.051 0.15 0.082 0.23 4e-3 0.02 0.012 0.04 0.016 0.05 0.027 0.07 0.051 0.14 0.074 0.21 4e-3 0.01 8e-3 0.02 0.012 0.02 0.023 0.08 0.051 0.15 0.078 0.23 0.012 0.03 0.024 0.06 0.035 0.1 0.012 0.03 0.028 0.07 0.039 0.1 8e-3 0.03 0.024 0.07 0.035 0.1 0.024 0.07 0.047 0.13 0.071 0.2 8e-3 0.03 0.023 0.06 0.031 0.08 0.023 0.07 0.051 0.14 0.074 0.21l4e-3 0.01c0.028 0.08 0.055 0.15 0.082 0.23 0.012 0.03 0.024 0.06 0.035 0.09 0.016 0.05 0.036 0.11 0.055 0.16 8e-3 0.02 0.016 0.04 0.023 0.06 0.028 0.08 0.055 0.15 0.083 0.23 3e-3 0.01 0.011 0.03 0.015 0.05 0.059 0.16 0.125 0.33 0.184 0.49 4e-3 0.02 4e-3 0.02 0.011 0.03 0.063 0.18 0.125 0.35 0.188 0.52l4e-3 0.01c0.031 0.09 0.062 0.17 0.098 0.27 0 0-4e-3 -0.01 0 0 0.031 0.09 0.066 0.18 0.097 0.26 4e-3 0.02 8e-3 0.02 0.012 0.04 0.027 0.07 0.058 0.16 0.086 0.23l0.012 0.03c0.031 0.08 0.062 0.17 0.093 0.25 0 0.01 0.012 0.03 0.016 0.04 0.062 0.18 0.129 0.35 0.195 0.53 0 0.01 4e-3 0.02 8e-3 0.02 0.027 0.09 0.063 0.18 0.094 0.26l8e-3 0.02c0.035 0.09 0.062 0.17 0.097 0.27 4e-3 0 8e-3 0.01 0.012 0.02 0.098 0.27 0.195 0.53 0.301 0.81 8e-3 0.02 0.015 0.04 0.023 0.07 0.028 0.06 0.051 0.13 0.074 0.2 0.02 0.04 0.032 0.07 0.047 0.11 0.028 0.08 0.055 0.15 0.082 0.23 4e-3 0 8e-3 0.01 0.012 0.02 0.031 0.09 0.07 0.19 0.106 0.28v0.01c0.039 0.1 0.07 0.19 0.109 0.29 0.293 0.77 0.59 1.56 0.898 2.36 8e-3 0.03 0.028 0.07 0.035 0.1 0.032 0.08 0.059 0.15 0.09 0.23 4e-3 0.02 0.012 0.03 0.02 0.05 0.109 0.29 0.226 0.6 0.34 0.89 0.011 0.03 0.015 0.04 0.023 0.07 0.027 0.06 0.051 0.12 0.078 0.19 0.024 0.06 0.039 0.11 0.067 0.17 0.105 0.29 0.218 0.58 0.332 0.86l8e-3 0.02c0.113 0.3 0.222 0.59 0.339 0.88 0.016 0.04 0.028 0.07 0.039 0.11 0.036 0.09 0.071 0.18 0.106 0.27 0.012 0.02 0.019 0.05 0.031 0.08 0.027 0.07 0.047 0.12 0.074 0.19 0.02 0.05 0.036 0.09 0.059 0.15 0.066 0.17 0.141 0.36 0.211 0.54 0.012 0.03 0.019 0.06 0.031 0.08 0.016 0.05 0.027 0.08 0.043 0.12 0.039 0.09 0.074 0.18 0.109 0.28 0.02 0.05 0.04 0.1 0.059 0.15 0.024 0.05 0.039 0.1 0.063 0.15 0.031 0.09 0.066 0.17 0.101 0.26 8e-3 0.02 0.02 0.05 0.027 0.07 0.024 0.06 0.047 0.12 0.067 0.18 0.023 0.05 0.039 0.09 0.062 0.15l0.036 0.09c0.046 0.12 0.089 0.23 0.14 0.36 0 0 4e-3 0.01 8e-3 0.01 0.082 0.21 0.164 0.43 0.246 0.64 0.012 0.03 0.024 0.06 0.035 0.09 0.024 0.05 0.051 0.12 0.071 0.18 0.011 0.02 0.023 0.05 0.031 0.07 0.039 0.1 0.086 0.22 0.125 0.31 0.019 0.06 0.043 0.12 0.066 0.18 0.016 0.04 0.028 0.07 0.043 0.1 0.07 0.19 0.145 0.38 0.219 0.56 0.019 0.06 0.043 0.11 0.066 0.17l0.032 0.08c0.05 0.12 0.097 0.24 0.148 0.37 4e-3 0.01 0.012 0.04 0.016 0.04 0.496 1.25 1.007 2.54 1.527 3.84 4e-3 0.01 4e-3 0.01 8e-3 0.01 0.062 0.16 0.113 0.29 0.176 0.44 7e-3 0.03 0.015 0.04 0.027 0.07 0.18 0.45 0.367 0.91 0.551 1.37 0.015 0.04 0.035 0.09 0.05 0.13 0.196 0.48 0.395 0.97 0.59 1.46l0.02 0.05c0.027 0.07 0.062 0.15 0.094 0.23 7e-3 0.02 0.011 0.03 0.023 0.06 0.094 0.23 0.195 0.48 0.289 0.71l4e-3 0.01c0.313 0.77 0.625 1.54 0.945 2.33l0.016 0.04c9.281 22.8 22.074 52.59 37.23 87.03 0.016 0.04 0.02 0.04 0.036 0.08 0.031 0.07 0.043 0.1 0.074 0.16 0.043 0.1 0.082 0.19 0.125 0.29 0.066 0.15 0.133 0.3 0.199 0.45 0.102 0.24 0.199 0.46 0.305 0.69 1.308 2.98 2.636 5.99 3.98 9.03 0.07 0.15 0.149 0.33 0.215 0.49 0.297 0.66 0.59 1.32 0.883 1.99 0.051 0.12 0.117 0.27 0.168 0.38 0.336 0.75 0.672 1.52 1.008 2.28 0.023 0.05 0.054 0.12 0.078 0.17 0.09 0.21 0.187 0.43 0.281 0.64 0.027 0.06 0.059 0.13 0.086 0.19 0.074 0.17 0.172 0.39 0.246 0.56 0.027 0.06 0.051 0.11 0.078 0.18 0.047 0.1 0.094 0.21 0.141 0.31 0.121 0.27 0.234 0.53 0.355 0.81 0.047 0.1 0.09 0.2 0.137 0.3 0.344 0.77 0.687 1.56 1.035 2.33 0.039 0.09 0.074 0.18 0.113 0.26 0.032 0.07 0.059 0.13 0.086 0.2 0.086 0.19 0.176 0.39 0.258 0.58 0.043 0.09 0.078 0.17 0.117 0.26 0.02 0.04 0.039 0.08 0.051 0.12 0.156 0.35 0.317 0.7 0.473 1.06 0.031 0.07 0.058 0.13 0.09 0.2l0.504 1.14c0.015 0.03 0.035 0.07 0.05 0.11 0.254 0.57 0.508 1.15 0.766 1.73 0.039 0.09 0.059 0.13 0.098 0.22 0.152 0.34 0.308 0.69 0.461 1.03 0.023 0.05 0.039 0.09 0.062 0.14s0.035 0.08 0.059 0.14c0.113 0.24 0.207 0.46 0.32 0.71 0.019 0.05 0.055 0.13 0.082 0.18 0.047 0.11 0.094 0.22 0.141 0.32 0.25 0.57 0.519 1.17 0.773 1.74 0.016 0.04 0.043 0.1 0.059 0.14 0.054 0.12 0.109 0.23 0.16 0.35 0.148 0.34 0.301 0.68 0.453 1.02l0.387 0.87c0.054 0.12 0.101 0.23 0.16 0.36 0.136 0.3 0.269 0.61 0.406 0.91l0.387 0.87c0.086 0.19 0.168 0.37 0.25 0.56 0.015 0.04 0.039 0.08 0.054 0.12 0.172 0.39 0.348 0.78 0.52 1.17 0.016 0.03 0.051 0.11 0.066 0.15 0.18 0.4 0.352 0.78 0.532 1.19 7e-3 0.02-4e-3 -0.01 4e-3 0.01 64.75 145.16 158.71 346.95 215.37 467.91 56.074-88.64 180.78-268.67 308.62-338.56l-238.71-528.63-8.981-464.23s-18.835-7.73-51.507-15.879h-0.028c-36.488-9.109-90.246-18.73-154.36-18.742h-0.043m453.63 1027.5"
        fill="#406f70"/>
      <path d="m678.92 3773.3c10.441 6.26 96.711 151.57 252.56 64.99 110.34-61.3 61.644-146.62 150.52-184.04 78.87-33.21 200.49-110.69 133.66-271.5-31.32-75.36 192.14-213.03-121.13-215.12-199.3-1.33-223.47-43.86-223.47-43.86l-192.14 649.53"
        fill="#704e61"/>
      <path d="m751.6 3773.9s-14.21 57.89-114.46 59.97c-100.25 2.09-294.48-121.13-223.47-300.74 71.008-179.61-119.05-258.97-16.711-375.93s-35.504-187.96 139.93-248.53c175.43-60.57 396.82 54.3 323.72 242.26-73.093 187.97-109.01 622.97-109.01 622.97"
        fill="#704e61"/>
      <path d="m675.9 3758.2s2.531 2.22 6.679 6.99c4.239 4.69 10.274 11.75 18.567 20.18 8.273 8.44 18.558 18.53 31.382 29 12.786 10.47 28.086 21.56 46.77 30.35 18.453 8.91 40.898 15.45 65.164 13.8 12.051-0.87 24.426-3.77 36.008-9.11 11.562-5.1 22.453-13.16 32.121-20.87 20.102-15.68 39.516-34.4 56.586-55.09 17.375-20.58 32.038-43.53 49.178-63.44 8.42-10.09 17.96-18.91 28.21-26.71 5.38-3.54 10.53-7.43 16.35-10.25 2.85-1.49 5.61-3.15 8.53-4.51l8.89-3.79c12.07-5.05 24.49-9.76 36.56-15.46 5.9-2.96 11.77-5.91 17.59-8.83 5.66-3.26 11.27-6.49 16.84-9.7 21.95-13.41 41.29-29.77 56.44-48.03 15-18.3 26.44-38.11 32.24-58.03 2.06-4.78 2.49-9.91 3.66-14.69 0.84-4.86 2.34-9.5 2.53-14.2 0.25-4.68 0.5-9.24 0.74-13.68 0.27-4.42 0.57-8.71 0-12.86-0.81-8.28-1.02-16.07-2.21-23.12-1.49-7-2.85-13.44-4.08-19.25-0.96-5.86-2.93-10.8-4.41-15.15-1.5-4.34-2.78-8.04-3.81-11.03-2.07-5.97-3.17-9.15-3.17-9.15s0.88 3.25 2.52 9.36c0.82 3.05 1.83 6.81 3.02 11.22 1.13 4.43 2.8 9.42 3.47 15.28 0.91 5.78 1.92 12.19 3.03 19.17 0.81 6.99 0.6 14.65 0.98 22.74 0.35 4.06-0.17 8.22-0.66 12.49-0.46 4.27-0.92 8.66-1.4 13.16-0.45 4.5-2 8.93-2.96 13.56-1.28 4.55-1.81 9.44-3.95 13.94-6.13 18.84-17.64 37.31-32.46 54.27-14.99 16.93-34 31.83-55.18 44.72-5.41 3.04-10.87 6.11-16.37 9.2-5.67 2.77-11.39 5.57-17.14 8.38-5.89 2.49-11.62 5.18-17.73 7.56-6.25 2.44-12.1 4.58-18.5 7.3l-9.49 3.94c-3.13 1.41-6.13 3.16-9.21 4.73-6.26 2.99-11.92 7.09-17.77 10.9-11.19 8.31-21.66 17.79-30.59 28.36-17.809 21.19-32.016 44.05-48.712 64.19-16.519 20.41-34.703 38.34-54.257 53.97-9.969 8.16-19.25 14.87-29.766 20.13-10.379 5.2-21.473 8.17-32.457 9.32-22.09 2.22-43.441-3.11-61.473-11.13-18.148-8-33.691-17.99-46.824-27.62-13.16-9.65-23.879-19.11-32.539-27.07-8.617-8.02-15.246-14.49-19.769-18.92-4.477-4.47-7.168-6.52-7.168-6.52"
        fill="#704e61"/>
      <path d="m757.52 3763.3s-0.942 4.31-4.915 11.38c-3.91 7.03-11.183 16.73-23.382 25.51-12.082 8.84-28.965 16.5-49.403 20.72-20.429 4.06-44.324 6.2-69.34 1.42-25.175-4.44-51.628-14.04-77.5-27.85-25.902-13.79-51.003-32.43-73.121-55.28-21.851-23.03-39.879-51.36-49.179-83.14-9.621-31.73-8.828-66.4-0.442-98.95 2.203-8.01 4.828-16.26 7.348-24.61 2.715-8.1 4.769-16.85 6.715-25.65 3.39-17.43 4.859-35.17 3.996-52.72-1.535-35.25-13.043-68.49-27.035-98.06-13.766-29.79-30.36-56.62-40.153-84.07-4.867-13.67-7.828-27.52-7.703-40.96 0.051-13.45 3.278-26.28 8.367-37.78 4.883-11.77 12.184-21.35 19.133-31.16 3.364-4.88 6.641-9.63 9.824-14.25 3.356-4.47 5.528-9.82 8.2-14.44 9.828-19.1 15.008-37.31 16.258-52.58 1.781-15.2 0.839-27.2 0.402-35.3-0.672-8.1-1.031-12.43-1.031-12.43s0.121 4.34 0.347 12.46c-0.035 4.05-0.082 9.05-0.136 14.93-0.618 5.84-0.571 12.62-2 20.02-1.813 14.92-7.688 32.6-17.899 50.6-2.801 4.39-4.887 9.23-8.473 13.63-3.371 4.49-6.839 9.1-10.398 13.84-7.082 9.2-15.191 19.52-20.641 31.74-5.718 12.08-9.597 25.94-10.011 40.56-0.5 14.61 2.359 29.6 7.109 44.07 9.606 29.05 25.543 56.49 38.938 85.69 13.476 29.1 24.05 60.8 25.218 94.03 0.68 16.54-0.851 33.29-4.175 49.72-1.864 8.05-3.77 16.14-6.633 24.46-2.532 8.21-5.285 16.45-7.688 25.14-8.621 34.49-9.168 71.64 1.371 105.38 10.192 33.8 29.535 63.49 52.528 87.33 23.14 23.85 49.773 42.28 76.761 55.85 27.004 13.57 54.395 22.75 80.559 26.71 26.355 4.47 50.863 1.19 71.523-3.84 20.786-5.16 37.832-13.74 49.836-23.3 12.2-9.45 18.914-19.87 22.508-27.12 3.617-7.35 4.317-11.7 4.317-11.7"
        fill="#704e61"/>
      <path d="m665.25 3369.8 119.56-217.22-136.03-67.14s440.04-239.27 453.09-230.94c109.92 70.16 35.59 440.86 35.59 440.86l-196.81-84.76-111.76 192.71-163.64-33.51"
        fill="#f78e92"/>
      <path d="m799.63 3397.3v0.01l29.266 5.99-29.266-6"
        fill="#64485a"/>
      <path d="m665.25 3369.8 134.38 27.52v-0.01l-134.38-27.51"
        fill="#64485a"/>
      <path d="m764.2 3190-98.945 179.77 134.38 27.51 29.266 6 104.92-180.92c-49.028-17.62-105.08-23.01-153.3-30.06-5.407-0.79-10.856-1.56-16.321-2.3"
        fill="#f68182"/>
      <path d="m532.41 3484.3s-54.898 151.54 106.25 244.49c161.15 92.94 290.86-33.4 340.97-148.82s67.065-258.86-59.312-328.6c-153.68-84.79-302.08 38.66-387.9 232.93"
        fill="#f78e92"/>
      <path d="m554.44 3455.2s-67.293-6.56-36.218-67.49c49.746-97.55 109.16-40.58 109.16-40.58s-41.09 25.36-72.946 108.07"
        fill="#f78e92"/>
      <path d="m751.6 3773.9s40.18-117.95-7.375-195.58c-47.55-77.62-133.5-118.16-133.5-118.16s39.718-112.39 17.285-97.02c0 0-68.422 76.1-99.285 106.68-30.86 30.57-83.836 218.54 47.343 279.37 131.18 60.82 175.54 24.71 175.54 24.71"
        fill="#704e61"/>
      <path d="m750.48 3773.2s2.829-5.29 6.793-15c3.829-9.75 9.27-23.79 13.676-41.34 4.477-17.5 8.239-38.48 8.645-61.37 0.09-11.43-0.324-23.35-2.406-35.31-1.223-5.95-1.93-12.05-3.973-17.92-1.777-5.92-3.324-11.94-6.082-17.57l-3.813-8.54c-1.675-3.54-3.148-5.35-4.726-8.1-3.11-5.07-6.203-10.11-9.278-15.11l-4.628-7.45-5.622-6.99c-3.73-4.61-7.41-9.16-11.035-13.64-7.144-9.04-15.527-16.11-22.726-23.61-7.473-7.21-15.332-13.14-22.203-18.97-7.114-5.57-14.032-10.14-19.993-14.36-6.199-3.88-11.601-7.26-16.054-10.05-9.125-5.19-14.547-7.72-14.547-7.72s1.219 0.86 3.508 2.47c2.234 1.68 5.511 4.15 9.679 7.28 4.055 3.26 8.977 7.22 14.621 11.76 5.399 4.79 11.489 10.2 18.129 16.11 6.227 6.32 13.379 12.73 20.278 20.12 3.363 3.77 6.812 7.65 10.343 11.62 3.485 3.99 7.356 7.82 10.403 12.3 3.254 4.33 6.562 8.74 9.91 13.2l5.055 6.7 4.523 7.48c3.012 5.04 6.043 10.12 9.086 15.22 1.348 2.4 3.445 5.43 4.176 7.34l3.383 7.82c2.601 5.08 4.066 10.63 5.781 16.07 1.972 5.35 2.672 11.07 3.894 16.59 1.996 11.15 3.075 22.36 3.313 33.28 0.488 21.86-1.824 42.4-4.649 59.88-2.949 17.47-6.171 32-8.964 42.03-2.684 10.07-4.497 15.78-4.497 15.78"
        fill="#704e61"/>
      <path d="m539.22 3386.3c-2.024 3.83-3.539 7.91-4.774 12.11-1.242 4.2-2.211 8.57-2.281 13.19-0.082 4.54 0.512 9.73 4.039 14.22 1.738 2.21 4.219 3.93 6.82 4.91 2.618 0.96 5.243 1.17 7.762 1.22l2.235 0.05 1.39-2.27c10.149-16.54 19.559-33.49 27.957-51.01l1.418-2.95-2.258-1.87c-4.547-3.78-9.812-9.79-8.007-14.13 0.867-2.34 3.835-4.37 6.906-5.69 3.14-1.33 6.547-2.32 10-3.25-3.571-0.16-7.184-0.05-10.805 0.72-3.523 0.8-7.547 1.91-10.375 5.78-2.726 4.2-1.523 9.43 0.184 12.89 1.832 3.69 4.125 6.62 6.988 9.54l-0.844-4.83c-10.496 16.35-19.984 33.25-28.73 50.58l3.617-2.22c-3.547 0.2-6.59-0.3-8.652-2.37-2.118-2.06-3.395-5.74-3.95-9.63-1.035-7.92-0.078-16.54 1.36-24.99"
        fill="#e96755"/>
      <path d="m831.32 3588.7s-7e-3 2.25 0.852 6.05c0.887 3.75 2.504 9.19 5.93 14.99 1.554 3.02 3.726 5.97 6.086 9.12 2.64 2.84 5.265 6.18 8.726 8.77 3.258 2.88 6.965 5.43 11.012 7.6 3.855 2.55 8.398 3.78 12.672 5.63 4.469 1.17 8.988 2.34 13.465 2.95 4.492 0.32 8.937 0.72 13.16 0.51 4.222-0.38 8.269-0.89 12.047-1.45 3.73-0.86 7.168-2.04 10.3-3.05 3.168-0.88 5.942-2.07 8.297-3.41 2.399-1.17 4.414-2.39 6.063-3.35 3.289-1.97 5.051-3.26 5.051-3.26s-2.266-0.32-6.032-0.6c-3.777-0.43-8.945-0.04-15.031-0.74-3.031-0.27-6.266-0.45-9.613-0.61-3.344-0.5-6.809-0.94-10.352-1.25-3.527-0.48-7.031-1.45-10.648-1.91-3.481-0.95-7.02-1.9-10.555-2.86-3.328-1.41-6.953-2.2-10.109-3.9-1.61-0.78-3.246-1.49-4.891-2.17-1.555-0.86-3.09-1.71-4.598-2.55-3.164-1.51-5.82-3.62-8.687-5.27-2.574-1.99-5.359-3.62-7.598-5.54-9.324-7.3-15.547-13.7-15.547-13.7"
        fill="#29202e"/>
      <path d="m957.89 3530.2s-1.438 1.8-3.746 5.03c-1.118 1.63-2.473 3.61-4.032 5.89-1.75 2.04-3.691 4.29-5.609 6.77-1.848 2.54-4.703 4.63-7.016 7.26-1.148 1.38-2.789 2.15-4.175 3.28-1.497 0.95-2.75 2.39-4.415 2.98-1.585 0.72-3.109 1.71-4.726 2.28-1.66 0.32-3.274 0.8-4.875 1.24h-4.77c-1.484-0.55-3.082-0.57-4.511-1.27-2.911-1.28-5.539-3.36-7.918-5.92-1.02-1.47-2.141-2.84-3.258-4.24-0.852-1.66-1.695-3.29-2.524-4.9-1.453-3.34-2.64-6.88-3.644-10.26-0.547-3.51-1.688-6.81-2.008-10.01-0.293-3.19-0.715-6.16-1.094-8.83-0.132-2.7-0.246-5.05-0.34-6.99-0.238-3.92-0.492-6.25-0.492-6.25s-0.875 2.08-2.195 5.88c-0.617 1.9-1.512 4.22-2.18 6.95-0.511 2.75-1.082 5.91-1.535 9.39-0.539 3.49-0.262 7.36-0.215 11.47 0.43 4.08 0.981 8.54 2.489 12.96 0.863 2.21 1.738 4.46 2.621 6.74 1.234 2.18 2.668 4.34 4.132 6.48 3.274 4.14 7.629 7.76 12.918 10.12 2.59 1.15 5.571 1.49 8.344 2.12 2.824 0.18 5.672-0.22 8.438-0.43 2.613-0.68 5.125-1.66 7.57-2.59 2.309-1.11 4.281-2.62 6.344-3.92 3.945-2.74 6.898-6.25 9.523-9.45 2.285-3.47 4.699-6.5 6.063-9.86 1.523-3.24 2.738-6.24 3.785-8.85 0.785-2.63 1.293-5 1.765-6.92 0.887-3.88 1.286-6.15 1.286-6.15"
        fill="#29202e"/>
      <path d="m791.34 3472.9s-1.438 1.79-3.746 5.02c-1.117 1.64-2.477 3.62-4.031 5.89-1.75 2.04-3.692 4.29-5.614 6.77-1.844 2.54-4.703 4.63-7.011 7.27-1.149 1.37-2.79 2.14-4.176 3.27-1.496 0.95-2.75 2.39-4.414 2.98-1.586 0.72-3.11 1.72-4.727 2.29-1.66 0.32-3.273 0.79-4.875 1.22l-4.769 0.01c-1.485-0.54-3.082-0.57-4.512-1.27-2.91-1.28-5.539-3.36-7.918-5.92-1.02-1.47-2.141-2.83-3.262-4.24-0.847-1.66-1.691-3.29-2.519-4.9-1.453-3.34-2.641-6.88-3.645-10.26-0.547-3.51-1.687-6.81-2.008-10.01-0.293-3.19-0.715-6.16-1.093-8.83-0.133-2.7-0.247-5.05-0.34-6.98-0.239-3.93-0.492-6.26-0.492-6.26s-0.875 2.09-2.196 5.88c-0.617 1.91-1.512 4.22-2.179 6.95-0.512 2.76-1.083 5.91-1.536 9.4-0.539 3.48-0.261 7.36-0.214 11.47 0.429 4.08 0.98 8.53 2.488 12.95 0.863 2.21 1.734 4.46 2.621 6.74 1.234 2.18 2.668 4.34 4.133 6.48 3.273 4.15 7.629 7.77 12.918 10.12 2.59 1.15 5.57 1.49 8.343 2.12 2.825 0.18 5.672-0.21 8.438-0.42 2.613-0.69 5.125-1.67 7.57-2.59 2.309-1.12 4.281-2.63 6.344-3.92 3.945-2.75 6.898-6.26 9.523-9.45 2.286-3.48 4.7-6.51 6.063-9.87 1.523-3.24 2.734-6.24 3.785-8.85 0.785-2.63 1.289-4.99 1.766-6.92 0.886-3.88 1.285-6.14 1.285-6.14"
        fill="#29202e"/>
      <path d="m848.2 3516c5.789-3.88 10.988-8.23 15.969-12.75 5.047-4.48 9.703-9.25 14.328-14.06 9.137-9.71 17.477-20.04 25.277-30.81l2.692-3.71-1.5-3.67c-3.367-8.24-7.309-16.26-11.387-24.24-4.23-7.92-8.699-15.75-14.164-23.22 0.668 9.23 2.328 18.09 4.223 26.87 2.05 8.72 4.238 17.39 7 25.85l1.191-7.38c-8.734 10.03-16.926 20.48-24.324 31.56-3.645 5.59-7.25 11.21-10.473 17.13-3.281 5.87-6.351 11.92-8.832 18.43"
        fill="#e36e66"/>
      <path d="m947.98 3385.7c-35.152-73.95-116.6-76.04-160.46-46.8"
        fill="#fff"/>
      <path d="m657 3551.2s-8e-3 2.25 0.848 6.05c0.89 3.75 2.504 9.19 5.933 14.99 1.551 3.02 3.727 5.97 6.086 9.12 2.641 2.84 5.266 6.18 8.727 8.77 3.258 2.88 6.965 5.44 11.008 7.6 3.855 2.55 8.402 3.78 12.675 5.63 4.469 1.17 8.989 2.34 13.461 2.95 4.493 0.33 8.942 0.72 13.164 0.51 4.223-0.38 8.27-0.89 12.047-1.45 3.731-0.86 7.164-2.04 10.301-3.05 3.164-0.88 5.938-2.07 8.297-3.41 2.398-1.17 4.41-2.39 6.062-3.35 3.286-1.97 5.051-3.26 5.051-3.26s-2.265-0.32-6.031-0.59c-3.781-0.44-8.945-0.05-15.031-0.75-3.035-0.27-6.266-0.45-9.614-0.61-3.343-0.5-6.808-0.94-10.351-1.25-3.527-0.48-7.031-1.44-10.652-1.91-3.481-0.94-7.016-1.9-10.551-2.85-3.328-1.43-6.953-2.21-10.11-3.91-1.609-0.78-3.246-1.49-4.89-2.17-1.555-0.86-3.09-1.71-4.602-2.55-3.16-1.51-5.816-3.62-8.683-5.27-2.575-1.98-5.36-3.62-7.598-5.54-9.324-7.3-15.547-13.7-15.547-13.7"
        fill="#29202e"/>
      <path d="m28.195 3230.6s-22.539 173.3 31.164-2c0 0-25.312 183.29 23.578 1.79 0 0-11.356 148.63 25.016-6.56 0 0 95.719 61.61 15.801-29.1l89.781-234.09c-46.453-22.46-59.406-16.33-87.699-53.39-6.371-8.35 15.707-82.48 9.055-90.65-74.782 109.81-118.13 333.15-129.97 417.14-19.035 135.07 23.273-3.14 23.273-3.14"
        fill="#f78e92"/>
      <path d="m1650.5 3078.8c-34.59 61.05-70.53 121.36-100.72 184.73-35.86-1.88-86.13 10.15-145.16 22.17-118.2 24.08-271.56 48.15-414.81-39.39 0 0 6.238-249.57-305.72-137.26 0 0-93.589-18.72-174.7-118.55-81.109-99.83-199.66-193.42-199.66-193.42l-153.09 375.9-137.27-62.39s84.458-500.69 184.29-531.88c78.207-24.44 344 165.53 455.49 248.98 2.07-62.38 28.098-152.91 145.06-152.91l31.16-244.98s403.24 61.19 628.8 270.04l-200.49 334.16s284.44 10.33 386.82 44.8"
        fill="#fcd0b0"/>
      <path d="m219.61 2576.5c-5.929 0-11.269 0.69-15.933 2.15-99.828 31.19-184.29 531.88-184.29 531.88s84.458-500.69 184.29-531.88c4.664-1.46 10-2.15 15.925-2.15 61.668 0 187.72 75.19 296.46 148.89-108.72-73.69-234.77-148.9-296.45-148.89m296.74 149.09c0.019 0.01 0.043 0.03 0.066 0.04-0.023-0.01-0.047-0.03-0.066-0.04"
        fill="#dbdada"/>
      <path d="m219.6 2576.5c-5.925 0-11.261 0.69-15.925 2.15-99.828 31.19-184.29 531.88-184.29 531.88l137.27 62.39 153.09-375.9s118.55 93.59 199.66 193.42c5.883 7.24 11.836 13.93 17.805 20.34 36.559-65.82 84.148-124.86 125.14-188.24-35.149-26.2-83.512-61.37-135.93-96.91-0.023-0.01-0.047-0.03-0.066-0.04-0.094-0.07-0.196-0.13-0.289-0.2-108.74-73.7-234.79-148.89-296.46-148.89"
        fill="#e4b59b"/>
      <path d="m1608.4 3577.9s-16.61-243.12-82.37-320.53l-0.66-0.69c62.51-29.44 49.93-159.84 114.24-185.12 41.77 29.24 78.32 108.1 78.68 108.79 52.46 101.05 38.12 394.25 38.12 394.25l-148.01 3.3"
        fill="#fcd0b0"/>
      <path d="m1732.8 3543.2c1.67-11.71-6.46-22.55-18.17-24.22l-113.93-16.28c-11.7-1.68-22.55 6.46-24.22 18.16l-40.51 283.5c-1.68 11.7 6.46 22.55 18.16 24.22l113.93 16.28c11.71 1.68 22.55-6.46 24.23-18.16l40.51-283.5"
        fill="#29202e"/>
      <path d="m1726.9 3575.6c8.05-1.98 12.18 0.27 17.82 0.9 4.32 26.79 9.3 160.05-29.98 162.15-43.46 2.34-139.92 7.62-26.36-24.1 0 0-196.13-2.12 0.3-28.02 0 0-199.97-35.78 14.24-20.86 0 0-140.47-33.28 17.78-25.97l6.2-64.1"
        fill="#f78e92"/>
      <path d="m3507.6 128.5c-4.32-4.441-8.03-9.309-11.08-14.539l-4.65 2.418c-0.67 2.973-3.5 5.019-6.59 4.66-3.31-0.391-5.68-3.391-5.29-6.699 0.39-3.309 3.39-5.68 6.7-5.289l1.83 0.519 4.52-2.34c-2.51-5.539-4.33-11.39-5.4-17.441l7.47-1.3086c2.3 13.058 8.5 25.058 17.92 34.718l-5.43 5.301"
        fill="#101c23"/>
      <path d="m3562.4 151.52c-1.71 0-3.41-0.071-5.1-0.168l-0.73 6.257c1.87 1.493 2.96 3.891 2.66 6.442-0.47 3.929-4.03 6.738-7.96 6.281-3.93-0.461-6.74-4.023-6.28-7.953 0.3-2.539 1.9-4.609 4.05-5.641l0.73-6.238c-7.14-1.16-14.03-3.32-20.59-6.461l3.27-6.84c9.34 4.473 19.41 6.742 29.95 6.742 4.96 0 9.93-0.531 14.75-1.582l1.61 7.411c-5.35 1.16-10.86 1.75-16.36 1.75"
        fill="#101c23"/>
      <path d="m3628.5 126.04c3.31 0.41 5.67 3.422 5.26 6.731-0.41 3.3-3.42 5.66-6.72 5.25-3.1-0.379-5.36-3.04-5.3-6.09l-4.16-3.629c-4.18 4.301-8.9 8.129-14.08 11.398l-4.04-6.418c11.34-7.14 20.21-17.261 25.63-29.25l6.91 3.129c-2.51 5.539-5.68 10.719-9.42 15.449l4.02 3.512 1.9-0.082"
        fill="#101c23"/>
      <path d="m3557 49.43c-3.85-0.2305-7.75-0.3477-11.57-0.3477-8.8 0-17.33 0.6094-24.78 1.7969-3.9 0.6211-8.46 1.5508-12.7 2.9219 10.46-18.609 30.69-31.25 53.88-31.25 28.56 0 52.62 19.16 59.5 45.031-6.82-4.4922-15.06-8.25-24.59-11.223-11.79-3.6797-25.54-6.0781-39.74-6.9297"
        fill="#101c23"/>
      <path d="m3588.2 80.289c-7.5 0-13.6 6.1015-13.6 13.602 0 7.5004 6.1 13.609 13.6 13.609s13.61-6.109 13.61-13.609c0-7.5-6.11-13.602-13.61-13.602zm-47.37-9.0782c-10.2 0-18.5 8.2891-18.5 18.488s8.3 18.5 18.5 18.5c10.19 0 18.49-8.3006 18.49-18.5s-8.3-18.488-18.49-18.488zm21.59 65.141c-33.52 0-60.8-26.661-60.8-59.43 0-4.2617 0.47-8.4922 1.38-12.613 6.73-4.8281 27.05-8.8984 53.47-7.3086 28.79 1.7305 52.97 9.5703 66.72 21.578-0.05 1.9532-0.2 3.9024-0.45 5.8203-3.8 29.622-29.73 51.954-60.32 51.954"
        fill="#101c23"/>
      <path d="m3722.5 117.68c-2.94 1.16-8.05 3.09-13.82 2.379-5.51-0.688-8.44-3.411-8.44-10.067v-8.66h22.28v-17.172h-22.28v-54.551h-19.31v54.551h-13.4v17.172h13.4v8.879c0 16.801 8.95 27.828 25.68 27.828 6.42 0 11.57-1.219 15.9-3.078l-0.01-17.281"
        fill="#101c23"/>
      <path d="m3769.5 84.359c-1.77 0.3008-3.58 0.4609-5.26 0.4609-8.96 0-15.1-5.4687-15.1-16.129v-39.082h-19.32v71.723h18.73v-7.8515c4.51 6.7385 11.4 9.7695 20.2 9.7695 4.15 0 8.48-1.27 10.95-3.3594l-10.2-15.531"
        fill="#101c23"/>
      <path d="m3795 72.238h31.75c-1.77 9.1836-7.33 14.363-15.62 14.363-9.1 0-14.43-5.4805-16.13-14.363zm51.14-6.6563c0-2.2226-0.15-4.8828-0.37-6.5117h-50.84c2.07-10.359 9.32-14.879 18.42-14.879 6.22 0 12.96 2.5195 18.14 6.8789l11.32-12.43c-8.14-7.4804-18.5-10.879-30.56-10.879-21.99 0-37.23 14.949-37.23 37.52 0 22.578 14.8 37.969 36.26 37.969 20.65 0 34.79-15.32 34.86-37.668"
        fill="#101c23"/>
      <path d="m3871.6 72.238h31.75c-1.77 9.1836-7.32 14.363-15.61 14.363-9.11 0-14.44-5.4805-16.14-14.363zm51.15-6.6563c0-2.2226-0.15-4.8828-0.37-6.5117h-50.85c2.07-10.359 9.32-14.879 18.43-14.879 6.22 0 12.95 2.5195 18.13 6.8789l11.33-12.43c-8.15-7.4804-18.51-10.879-30.57-10.879-21.98 0-37.23 14.949-37.23 37.52 0 22.578 14.8 37.969 36.26 37.969 20.65 0 34.79-15.32 34.87-37.668"
        fill="#101c23"/>
      <path d="m3949.4 65.512c0-11.332 7.48-19.762 18.43-19.762 11.4 0 18.51 8.8008 18.51 19.762 0 10.949-7.11 19.758-18.51 19.758-10.95 0-18.43-8.4375-18.43-19.758zm56.77 0c0-21.543-14.95-37.75-34.71-37.75-9.62 0-16.43 3.7696-21.09 9.3281v-37.09h-19.25v101.33h18.88v-7.9218c4.66 5.8515 11.54 9.8398 21.39 9.8398 19.83 0 34.78-16.199 34.78-37.738"
        fill="#101c23"/>
      <path d="m4034.6 29.609h-19.32v71.723h19.32zm2.59 95.18c0-6.957-5.41-12.277-12.36-12.277-6.96 0-12.29 5.32-12.29 12.277 0 6.961 5.33 12.441 12.29 12.441 6.95 0 12.36-5.48 12.36-12.441"
        fill="#101c23"/>
      <path d="m4066.8 75.789 27.02 25.543h23.68l-34.78-33.75 35.01-37.973h-23.76l-27.17 29.012v-29.012h-19.31v106.58h19.31v-60.402"
        fill="#101c23"/>
      <path d="m2750.7 49.449v32.082c-3.96 6.1484-12.45 11.418-21.24 11.418-14.21 0-22.71-11.719-22.71-27.391 0-15.668 8.5-27.238 22.71-27.238 8.79 0 17.28 4.9688 21.24 11.129zm0-19.188v10.547c-5.28-7.1797-13.92-12.309-23.88-12.309-18.46 0-31.49 14.059-31.49 37.059 0 22.562 12.89 37.211 31.49 37.211 9.52 0 18.16-4.688 23.88-12.45v37.641h10.98v-97.699h-10.98"
        fill="#101c23"/>
      <path d="m2810.6 93.68c-15.09 0-22.56-12.738-23.15-23.578h46.44c-0.15 10.547-7.18 23.578-23.29 23.578zm-34.72-27.969c0 20.5 14.65 37.059 34.86 37.059 21.39 0 33.98-16.7 33.98-37.942v-2.789h-57.27c0.88-13.32 10.26-24.457 25.49-24.457 8.06 0 16.26 3.2266 21.82 8.9375l5.28-7.1797c-7.03-7.0312-16.55-10.84-28.13-10.84-20.94 0-36.03 15.09-36.03 37.211"
        fill="#101c23"/>
      <path d="m2852.6 39.641 5.71 7.8985c4.69-5.418 13.63-10.098 23.29-10.098 10.84 0 16.7 5.1172 16.7 12.16 0 17.129-43.79 6.5898-43.79 32.809 0 10.98 9.52 20.36 26.36 20.36 12.01 0 20.51-4.5395 26.22-10.258l-5.13-7.6211c-4.24 5.1289-12.01 8.9414-21.09 8.9414-9.67 0-15.67-4.832-15.67-11.133 0-15.527 43.79-5.2695 43.79-32.809 0-11.871-9.51-21.391-27.83-21.391-11.57 0-21.38 3.5195-28.56 11.141"
        fill="#101c23"/>
      <path d="m2923.2 30.262v70.75h10.99v-70.75zm-1.9 88.179c0 4.098 3.37 7.469 7.32 7.469 4.11 0 7.47-3.371 7.47-7.469 0-4.101-3.36-7.32-7.47-7.32-3.95 0-7.32 3.219-7.32 7.32"
        fill="#101c23"/>
      <path d="m3003.6 50.621v30.91c-3.81 6.1484-12.31 11.418-21.09 11.418-14.21 0-22.71-11.277-22.71-26.949 0-15.531 8.5-26.949 22.71-26.949 8.78 0 17.28 5.418 21.09 11.57zm-51.27-38.52 5.57 8.1992c5.86-7.0313 12.89-9.6719 22.99-9.6719 11.72 0 22.71 5.7109 22.71 21.242v10.109c-5.13-7.1797-13.77-12.602-23.73-12.602-18.46 0-31.5 13.77-31.5 36.621 0 22.699 12.89 36.77 31.5 36.77 9.52 0 18.02-4.688 23.73-12.45v10.692h10.98v-68.703c0-23.438-16.4-30.758-33.69-30.758-12.01 0-20.21 2.3398-28.56 10.551"
        fill="#101c23"/>
      <path d="m3080.7 30.262v46.289c0 12.449-6.29 16.398-15.81 16.398-8.65 0-16.85-5.2695-20.95-10.988v-51.699h-10.99v70.75h10.99v-10.262c4.98 5.8594 14.64 12.02 25.19 12.02 14.8 0 22.56-7.4692 22.56-22.848v-49.66h-10.99"
        fill="#101c23"/>
      <path d="m3140.6 93.68c-15.08 0-22.56-12.738-23.14-23.578h46.43c-0.14 10.547-7.18 23.578-23.29 23.578zm-34.71-27.969c0 20.5 14.64 37.059 34.86 37.059 21.38 0 33.98-16.7 33.98-37.942v-2.789h-57.27c0.88-13.32 10.25-24.457 25.49-24.457 8.05 0 16.26 3.2266 21.82 8.9375l5.28-7.1797c-7.04-7.0312-16.56-10.84-28.13-10.84-20.94 0-36.03 15.09-36.03 37.211"
        fill="#101c23"/>
      <path d="m3240 49.449v32.082c-3.96 6.1484-12.45 11.418-21.24 11.418-14.21 0-22.7-11.719-22.7-27.391 0-15.668 8.49-27.238 22.7-27.238 8.79 0 17.28 4.9688 21.24 11.129zm0-19.188v10.547c-5.27-7.1797-13.91-12.309-23.88-12.309-18.45 0-31.49 14.059-31.49 37.059 0 22.562 12.89 37.211 31.49 37.211 9.52 0 18.17-4.688 23.88-12.45v37.641h10.99v-97.699h-10.99"
        fill="#101c23"/>
      <path d="m3335.5 38.32c14.36 0 22.85 11.57 22.85 27.238 0 15.672-8.49 27.391-22.85 27.391-8.64 0-17.28-5.2695-21.09-11.418v-32.082c3.81-6.1601 12.45-11.129 21.09-11.129zm-32.08-8.0586v97.699h10.99v-37.641c5.71 7.7617 14.21 12.45 23.88 12.45 18.45 0 31.49-14.649 31.49-37.211 0-23-13.04-37.059-31.49-37.059-9.97 0-18.61 5.1289-23.88 12.309v-10.547h-10.99"
        fill="#101c23"/>
      <path d="m3381.8 12.539c1.61-0.7383 4.25-1.1797 6-1.1797 4.83 0 8.06 1.6094 10.55 7.4726l4.69 10.699-29.59 71.481h11.86l23.59-58.012 23.43 58.012h12.01l-35.44-85.114c-4.25-10.25-11.43-14.207-20.81-14.348-2.34 0-6 0.4375-8.05 1.0312l1.76 9.9571"
        fill="#101c23"/>
    </g>
  </g>
</svg>
