<?xml version="1.0" encoding="UTF-8"?>
<svg version="1.1"
  viewBox="0 0 666.67 666.67"
  xml:space="preserve"
  xmlns="http://www.w3.org/2000/svg">


  <g transform="matrix(1.3333 0 0 -1.3333 0 666.67)">
    <g transform="scale(.1)">
      <path d="m5e3 0h-5e3v5e3h5e3v-5e3"
        fill="#aecfe4"/>
      <path d="m4306.2 848c0-67.418-888.85-122.08-1985.3-122.08s-1985.3 54.66-1985.3 122.08c0 67.422 888.84 122.07 1985.3 122.07s1985.3-54.648 1985.3-122.07"
        fill="#96b7c7"/>
      <path d="m770.2 1324c-2.265-1.27-3.058-4.16-1.777-6.44l58.59-104.13c1.285-2.28 4.16-3.1 6.426-1.83 2.265 1.28 3.062 4.16 1.777 6.45l-58.582 104.13c-1.285 2.28-4.168 3.09-6.434 1.82"
        fill="#100f0d"/>
      <path d="m3771.6 4367.8s95.77 24.87 135.96-51.71c40.18-76.59 4.93-151.24 11.96-191.44 7.03-40.21 26.28-66.06 26.28-66.06s-83.37-85.54-206.22-22.81c-77.4 39.51-79.01 65.94-79.01 65.94s18.97 96.12 40.22 159.84c25.86 77.53 34.38 106.25 70.81 106.24"
        fill="#253229"/>
      <path d="m2041.5 3666.2s-36.24 17.37-62.23-18.57c-15.34-21.2-19.32-127.94-19.32-127.94l89.66 96.04-8.11 50.47"
        fill="#347f7f"/>
      <path d="m3961.3 3678.1s222.63-71.19 230.96-76.4c8.32-5.2 190.68-234.89 190.68-234.89l-44.77-28.11-194.68 163.45-282.13 46.85 99.94 129.1"
        fill="#732722"/>
      <path d="m4374.3 3364.8s17.37-17.07 28.32-18.32c10.94-1.24 48.22-7.62 48.22-7.62s-11.77-13.15-28.37-23.13c-16.59-9.97-56.8-5.57-56.8-5.57l-25.95 32.1 34.58 22.54"
        fill="#f8c27c"/>
      <path d="m4371 3296.8s146.5 19.51 145.1 26.03c-1.38 6.52-50.95 24.04-65.63 20.05-14.68-3.98-34.93-27.91-54.98-29.11-20.06-1.2-34.94-0.3-34.99-3.68-0.05-3.39-0.76-14.82 10.5-13.29"
        fill="#c2525c"/>
      <path d="m4076.8 999.86s16.27-22.48 23.93-22.48 14.68-6.699 15.64-10.207c0.95-3.512 3.82-87.422-1.92-91.57-5.75-4.141-17.23 11.796-22.02 20.418-4.78 8.609-9.57 26.16-9.57 26.16l-27.12 46.09 21.06 31.589"
        fill="#f8c27c"/>
      <path d="m4084.8 910.38s15.01 11.453 21.39 21.992c6.38 10.551-9.89 43.41-5.42 45.008 4.46 1.59 22.65 2.23 23.93-6.379 1.28-8.621 5.1-122.85-0.64-126.67-5.74-3.832-17.23 2.59-23.29 16.93s-15.97 49.117-15.97 49.117"
        fill="#1e425c"/>
      <path d="m3988.9 919.93v-43.711l-56.48-3.508s10.53 32.551 10.85 42.437c0.32 9.891 45.63 4.782 45.63 4.782"
        fill="#f8c27c"/>
      <path d="m980.23 836.66-516.97 7.43v51.371l510.5 37.008 6.468-95.809"
        fill="#dc3e47"/>
      <path d="m978.76 858.39-31.61 15.91-483.89-22.02v-8.191l516.97-7.43-1.468 21.731"
        fill="#d02d39"/>
      <path d="m463.26 850.43v37.851s-29.992 0.16-38.61 0c-8.613-0.16-25.843 20.848-25.843 20.848l-20.098-29.348 15.313-40.332s20.261 8.563 26.96 9.133c6.7 0.578 42.278 1.848 42.278 1.848"
        fill="#f8c27c"/>
      <path d="m980.23 959.94-94.746 112.08c-21.086 24.94-59.664 24.53-80.211-0.86l-128.24-158.47 36.371-26.8 128.9 111.67s95.722-148.05 123.8-160.81c28.075-12.77 135.28 7.34 135.28 7.34l-121.16 115.85"
        fill="#dc3e47"/>
      <path d="m1101.4 844.09-55.11 52.691-14.77 4.969-21.06 13.648s31.59-40.449 21.06-52.898c-10.53-12.441-40.201-22.359-72.744 11.801-32.543 34.148-112.95 149.97-112.95 149.97l-140.57-132.37 8.16-6.007 128.9 111.67s95.722-148.05 123.8-160.81c28.075-12.762 135.28 7.34 135.28 7.34"
        fill="#d02d39"/>
      <path d="m681.86 909.13 27.731-20.438-13.867-31.3s-27.629-9.672-40.395-6.219c-12.758 3.449-17.867 10.469-17.867 10.469l7.703 5.179s34.512 35.551 36.695 42.309"
        fill="#f8c27c"/>
      <path d="m369.14 839.45v151.9s25.84-27.622 31.586-58.692l5.742-31.07s-12.445-17.25-12.445-33.649v-28.492h-24.883"
        fill="#f8a627"/>
      <path d="m702.56 832.51h-151.89s27.617 25.84 58.687 31.578c31.067 5.75 31.067 5.75 31.067 5.75s17.258-12.449 33.656-12.449h28.477v-24.879"
        fill="#f8a627"/>
      <path d="m2321.4 2134.6s-10.09 79.46-9.13 107.23c0.96 27.75 4.53 34.45 4.53 34.45s-13.15 23.93-11.23 38.29c1.91 14.36 70.83-10.53 103.38-8.61 32.54 1.91 66.04-5.25 86.14-23.21 20.11-17.96 2.87-93.82 0-118.59-2.87-24.76-25.64-58.64-25.64-58.64l-148.05 29.08"
        fill="#253229"/>
      <path d="m3790.8 2111.2s-40.35 69.42-38.91 87.12c1.44 17.71 10.05 28.23 10.05 28.23s-12.99 2.4-10.08 24.9c2.91 22.49 19.47 24.88 19.47 24.88s-6.35 26.81 14.86 33.98c21.21 7.18 36.06-4.3 36.06-4.3s14.52 33.01 49.14 29.66c34.61-3.34 48-17.22 48-17.22s21.55 5.74 34.47-15.79c12.92-21.55 12.44-27.77 12.44-27.77s15.32-1.91 18.67-23.92c3.35-22.02-6.71-38.29-6.71-38.29s11.02-12.44-2.39-33.02c-13.4-20.59-37.32-66.06-37.32-66.06l-147.75-2.4"
        fill="#171e3a"/>
      <path d="m4044.2 1639.4-23.34-45.93-1.61-54.83s6.06-23.87 16.9-27.42c10.85-3.54 31.59-4.17 31.59-4.17s0.14 3.98-4.78 7.67c-7.02 5.26-17.23 7.05-17.23 7.05s-9.02 14.32-8.93 17.51c0.31 11.49 20.18 26.52 20.18 26.52l8.53-21.74s2.49-6.85 5.74-0.63c3.52 6.7 3.52 28.07 4.79 36.37 1.27 8.29-6.7 23.93-6.7 23.93l8.52 13.09-33.66 22.58"
        fill="#f8c27c"/>
      <path d="m3745.1 1521.7 49.8-362.43 260.88-213.52 33.55 58.369-193.56 207.73-4.58 296.83-146.09 13.02"
        fill="#1e425c"/>
      <path d="m4020.8 1534-26.9-624.65h-67.56l-35.21 599.31 129.67 25.34"
        fill="#1e425c"/>
      <path d="m3891.2 1508.7-146.09 13.02 3.52-25.65c34.26-12.65 85.35-27 143.22-28.92l-0.65 41.55"
        fill="#172c38"/>
      <path d="m4018.6 1481.7 2.26 52.33-129.67-25.34 2.44-41.59c21.28-0.61 43.37 0.32 65.95 3.84 22.85 3.56 42.21 7.18 59.02 10.76"
        fill="#172c38"/>
      <path d="m4231.8 1882.1-230.97 172.25s-44.25 33.73-99.27 45.89c-72.4 16.01-105.31 7.25-128.44-4.31-25.86-12.93-63.66-35.29-63.66-35.29l-179.72-131.4 56.57-44.73 129.39 41.87 6.56-400.28s89.65-18.96 160.34-17.24c70.69 1.73 146.55 18.96 146.55 34.48 0 9.35-20.45 103.88-36.99 251.83l5.1 122.16 142.3-81.99-99.73-193 48.04-32.22 151.18 219.01c12.01 16.79 8.82 40.03-7.25 52.97"
        fill="#3573bc"/>
      <path d="m3864.4 1931.2 0.78 36.14c0.04 2.29 1.92 4.12 4.2 4.12h42.5c2.44 0 4.37-2.06 4.2-4.5l-6.99-103.34c-0.15-2.26-2.08-4-4.34-3.92l-39.04 1.37c-2.33 0.08-4.15 2.05-4.05 4.38l2.74 65.75"
        fill="#171e3a"/>
      <path d="m3752.2 1520.7c1.28 5.11-7.02 503.33-7.02 503.33l-16.75-58.39s-130.22-63.27-151.19-74.05l9.05-7.15 129.39 41.87 6.56-400.28s11.68-2.46 29.78-5.51c0.03 0.06 0.17 0.13 0.18 0.18"
        fill="#2a6193"/>
      <path d="m4122.2 4038.5s-134.4-134.75-143.92-134.75-168.67 137.24-168.67 137.24 13.33-142.11 18.54-143.15c3.86-0.77 90.69-55.57 135.1-83.71 14.65-9.28 33.88-6 44.69 7.56l160.29 201.02-46.03 15.79"
        fill="#f14e54"/>
      <path d="m3983.2 3829.5c-15.31 0.64-153.09 119.33-153.09 119.33l-8.25-19.8c2.43-17.91 4.7-30.9 6.26-31.21 3.86-0.77 90.69-55.57 135.1-83.71 14.65-9.28 33.88-6 44.69 7.56l29.39 36.86c-21.61-14.39-46.1-29.36-54.1-29.03"
        fill="#e33a43"/>
      <path d="m2162 1398.3 245.04-358 72.75 59.35-175.26 369.48-142.53-70.83"
        fill="#732722"/>
      <path d="m2340.6 1582.7 195.35-23.55-318.26-627.92-77.36 22.52 200.27 628.95"
        fill="#853327"/>
      <path d="m2723.5 1859.5h-648.48l273.47 663.66h648.48zm1412.2 663.66v515.61h-371.1l205.97 499.81h-555.18l-205.96-499.81h-648.47l205.95 499.81h-555.17l-205.96-499.81h-738.61v-515.61h526.14l-273.48-663.66h-583.57v-515.6h371.1l-205.96-499.82h555.17l205.96 499.82h648.48l-205.96-499.82h555.17l205.96 499.82h738.61v515.6h-526.14l273.48 663.66h583.57"
        fill="#fafdfe"/>
      <path d="m958.47 4164.9h-56.27l23.731 57.59h56.269zm122.54 57.59v44.74h-32.2l17.87 43.37h-48.17l-17.88-43.37h-56.259l17.871 43.37h-48.176l-17.871-43.37h-64.086v-44.74h45.649l-23.727-57.59h-50.636v-44.73h32.203l-17.871-43.37h48.171l17.872 43.37h56.265l-17.871-43.37h48.172l17.871 43.37h64.083v44.73h-45.65l23.73 57.59h50.64"
        fill="#fafdfe"/>
      <path d="m4454.6 2290.3h-56.26l23.73 57.58h56.26zm122.54 57.58v44.75h-32.2l17.87 43.37h-48.17l-17.87-43.37h-56.27l17.87 43.37h-48.16l-17.88-43.37h-64.09v-44.75h45.66l-23.73-57.58h-50.64v-44.74h32.2l-17.87-43.36h48.17l17.87 43.36h56.27l-17.87-43.36h48.16l17.88 43.36h64.09v44.74h-45.66l23.73 57.58h50.64"
        fill="#fafdfe"/>
      <path d="m588.9 1915h-56.265l23.726 57.59h56.27zm122.54 57.59v44.73h-32.203l17.871 43.37h-48.168l-17.871-43.37h-56.269l17.871 43.37h-48.176l-17.871-43.37h-64.086v-44.73h45.652l-23.726-57.59h-50.637v-44.74h32.195l-17.871-43.37h48.176l17.871 43.37h56.266l-17.871-43.37h48.172l17.871 43.37h64.09v44.74h-45.653l23.727 57.59h50.64"
        fill="#fafdfe"/>
      <path d="m952.44 2903.8h-35.395l14.926 36.22h35.394zm77.072 36.22v28.14h-20.25l11.24 27.28h-30.301l-11.238-27.28h-35.398l11.242 27.28h-30.297l-11.242-27.28h-40.313v-28.14h28.719l-14.93-36.22h-31.847v-28.14h20.25l-11.239-27.28h30.297l11.242 27.28h35.395l-11.238-27.28h30.296l11.239 27.28h40.313v28.14h-28.716l14.926 36.22h31.85"
        fill="#fafdfe"/>
      <path d="m2998.2 3881.9h-35.39l14.93 36.22h35.39zm77.08 36.22v28.15h-20.25l11.24 27.27h-30.3l-11.24-27.27h-35.39l11.24 27.27h-30.31l-11.24-27.27h-40.31v-28.15h28.72l-14.93-36.22h-31.85v-28.14h20.26l-11.24-27.28h30.3l11.24 27.28h35.39l-11.24-27.28h30.3l11.24 27.28h40.32v28.14h-28.72l14.93 36.22h31.84"
        fill="#fafdfe"/>
      <path d="m4587.4 1261.6h-35.39l14.92 36.22h35.4zm77.08 36.22v28.15h-20.25l11.24 27.27h-30.3l-11.24-27.27h-35.39l11.24 27.27h-30.31l-11.24-27.27h-40.31v-28.15h28.72l-14.93-36.22h-31.85v-28.13h20.26l-11.24-27.29h30.29l11.24 27.29h35.4l-11.24-27.29h30.29l11.25 27.29h40.31v28.13h-28.71l14.92 36.22h31.85"
        fill="#fafdfe"/>
      <path d="m2993.4 3308.6h-22.27l9.4 22.79h22.26zm48.48 22.79v17.7h-12.74l7.07 17.15h-19.05l-7.07-17.15h-22.27l7.07 17.15h-19.06l-7.07-17.15h-25.35v-17.7h18.05l-9.38-22.79h-20.04v-17.7h12.74l-7.07-17.16h19.07l7.07 17.16h22.25l-7.07-17.16h19.06l7.07 17.16h25.36v17.7h-18.06l9.38 22.79h20.04"
        fill="#fafdfe"/>
      <path d="m1284 2162.8h-22.27l9.39 22.79h22.27zm48.48 22.79v17.69h-12.74l7.07 17.16h-19.06l-7.07-17.16h-22.26l7.07 17.16h-19.06l-7.07-17.16h-25.36v-17.69h18.07l-9.39-22.79h-20.04v-17.7h12.74l-7.07-17.16h19.06l7.07 17.16h22.26l-7.07-17.16h19.06l7.07 17.16h25.36v17.7h-18.06l9.39 22.79h20.03"
        fill="#fafdfe"/>
      <path d="m1338.9 3507h-22.26l9.38 22.78h22.27zm48.48 22.78v17.7h-12.74l7.07 17.16h-19.06l-7.07-17.16h-22.26l7.07 17.16h-19.06l-7.07-17.16h-25.36v-17.7h18.06l-9.39-22.78h-20.03v-17.7h12.74l-7.07-17.16h19.06l7.07 17.16h22.26l-7.07-17.16h19.06l7.07 17.16h25.36v17.7h-18.06l9.38 22.78h20.04"
        fill="#fafdfe"/>
      <path d="m4566.5 3937.4h-22.25l9.38 22.78h22.27zm48.49 22.78v17.71h-12.75l7.08 17.15h-19.06l-7.07-17.15h-22.26l7.07 17.15h-19.07l-7.07-17.15h-25.35v-17.71h18.06l-9.39-22.78h-20.03v-17.7h12.74l-7.07-17.16h19.06l7.07 17.16h22.26l-7.07-17.16h19.06l7.07 17.16h25.36v17.7h-18.06l9.38 22.78h20.04"
        fill="#fafdfe"/>
      <path d="m3531.1 1859.5s14.46-25.46 35.51-37.42c21.06-11.96 180.91-35.41 201.97-44.99 7.13-3.23 21-12.17 36.17-22.52v104.93h-273.65"
        fill="#cbcac8"/>
      <path d="m3511.6 3523.2 281.42-2.56 123.16-38.92-54.82-129.15 7.93-59.72 101.27 245.75h-555.18l-28.64-69.5c6.82 0.51 26.95 3.47 57.22 20.91 37.65 21.7 67.64 33.19 67.64 33.19"
        fill="#cbcac8"/>
      <path d="m1970.5 1814c39.25-3.76 205.8 22.51 205.8 22.51s14.35-18.75 25.84-21.62 39.25 1.92 93.46 4.46c54.21 2.55 355.15 39.66 355.15 39.66l-0.31 0.48h-575.46l23.9 58.02c-17.28-2.14-30.33-4.23-37.37-6.2-59-16.54-130.26-93.55-91.01-97.31"
        fill="#cbcac8"/>
      <path d="m1948.4 3038.8h-481.35c-14.24-34.2-44.18-130.27-68.29-215.62-20.99-74.36-71.41-156.07-131.59-204.54v-66.67l145 49.54 153.15 367.16 111-445.48h92.19c40.4 36.31-6.59 123.26-6.59 123.26s-1.97 228.42 0 246.28c1.98 17.87 186.48 146.07 186.48 146.07"
        fill="#cbcac8"/>
      <path d="m2100.3 3268.2c58.35 97.03 227.42 255.98 242.9 270.44h-131.46l-111.44-270.44"
        fill="#cbcac8"/>
      <path d="m1759.9 3188.9-278.23-81.68-99.32-396.05 70.19-17.86 131.23 295.22 312.69 148.04-136.56 52.33"
        fill="#172c38"/>
      <path d="m1757.3 3183.7 4.57 4.48-1.97 0.76-278.23-81.68-99.32-396.05 15.91-4.05 107.66 367.62 251.38 108.92"
        fill="#1e425c"/>
      <path d="m2001.2 3145.5s10.85-80.41-44.67-103.38-233.56-97-233.56-97l56.94-292.32-77.81-27.65-147.59 382.51 297.37 181.23 149.32-43.39"
        fill="#1e425c"/>
      <path d="m2245.6 1859.5h298.04c1.79 8.29 3 16.66 3.14 25.05 1.28 77.85-5.74 206.87-5.74 206.87-89.34 35.62-205.48 8.73-205.48 8.73s-49.77-27.99-77.85-45.85c-28.08-17.87-213.35-147.8-213.35-147.8l35.31-80.37 171.75 69.66c-2.35-13.02-4.27-25.27-5.82-36.29"
        fill="#ea1549"/>
      <path d="m2318.3 1981.6 0.77 36.15c0.05 2.28 1.92 4.12 4.21 4.12h42.5c2.44 0 4.37-2.07 4.2-4.51l-6.99-103.34c-0.15-2.26-2.08-4-4.35-3.92l-39.03 1.38c-2.33 0.07-4.15 2.04-4.05 4.37l2.74 65.75"
        fill="#171e3a"/>
      <path d="m2270.6 2024.2v-92.05l-176.91-44.51z"
        fill="#cb1840"/>
      <path d="m1112.4 1235.1s-53.73-6.94-78.87 17.33c-25.13 24.27-4.33 41.6-17.33 56.33-13 14.74-44.625 18.12-66.578 70.13-21.957 51.99 6.969 124.04 54.378 150 63.33 34.65 96.64 19.06 126.97-3.47 0 0 28.22 3.47 46.42-23.4 18.2-26.86 5.2-72.62 27.73-114.22 22.54-41.6 72.8-125.84-92.72-152.7"
        fill="#100f0d"/>
      <path d="m1097 1336.8c-29.73 29.19-33.44 103.85-33.44 103.85-16.08-24.29-55.8-22.16-76.471-19.16 2.969-11.19 5.887-22.17 6.368-23.89 1.019-3.67-0.465-53.42 10.453-53.74l10.92-0.32s18.17-41.84 37.59-42.42c19.41-0.58 32.65 6.36 32.65 6.36l7.3-54.71 74.25 13.63s-7.13 16.4-12.87 34.33c-17.68 7.96-40.63 20.24-56.75 36.07"
        fill="#f8c27c"/>
      <path d="m1020.3 1390.3c1.23-5.07 0.27-9.65-2.16-10.24-2.41-0.59-5.38 3.04-6.61 8.11s-0.27 9.65 2.15 10.25c2.42 0.58 5.38-3.05 6.62-8.12"
        fill="#171e3a"/>
      <path d="m1005 1401.9c0.38-0.72-0.85 13.85 10.91 14.53 11.78 0.68 27.66-10.43 26.52-7.26-1.13 3.17-19.06 12.26-27.68 12.26s-14.07-11.35-9.75-19.53"
        fill="#100f0d"/>
      <path d="m1038.7 1367.1c0.51-2.65-4.18-5.77-10.48-6.97-6.29-1.2-11.8-0.04-12.31 2.6-0.51 2.65 4.19 5.78 10.48 6.98s11.8 0.04 12.31-2.61"
        fill="#f47185"/>
      <path d="m1019.8 1333.5s15.46-0.4 24.77 5.5c0 0-2.27-11.33-10.55-14.52-6.89-2.64-7.95-1.5-7.95-1.5l-6.27 10.52"
        fill="#853327"/>
      <path d="m1106.5 1294.9s37.02 17.86 47.23 7.66c10.21-10.22 60.08-32.32 60.08-152.11 0-40.86-61.36-283.73-112.41-306.39 0 0-100.83 47.539-121.16 115.85 0 0 48.41 31.411 59.9 80.369 8.01 34.19-52.333 128.27 28.07 215.05 13.99 15.1 38.29 39.57 38.29 39.57"
        fill="#f8a627"/>
      <path d="m2044.3 1906.5 212.07 59.43 14.19-55.46-184.98-84.34c-70.1-22.71-93.11 13.66-41.28 80.37"
        fill="#ea1549"/>
      <path d="m4172.8 3706-292.03-11.95-112.44-95.78s-12.44-57.55 36.09-61.08c148.91-10.8 239.08 29.99 239.08 29.99l-114.63-178.68 32.41-35.93c77.73 72.19 127.43 122.52 240.15 245.7 50.98 55.72 28.07 109.7-28.63 107.73"
        fill="#853327"/>
      <path d="m3766.9 3569.1 163.07 126.94s-50.18 50.74-62.68 66.01c-12.49 15.27-19.67 73.57-18.85 86.06 0.82 12.5 45.23 63.86 36.9 93.01s-80.51 111.05-101.33 120.76c-20.82 9.72-88.83 0-88.83 0s-48.59-81.89-44.43-187.39 68.02-251.25 116.15-305.39"
        fill="#f14e54"/>
      <path d="m3812.2 3604.4c-36.41 55.25-74.67 196.21-74.67 204.48 0 9.66 46.9 50.65 46.9 50.65s-6.7-2.87-48.81 11.49c-42.12 14.36-13.4 112.95-13.4 112.95l-63.76-23.19c-5.43-25.66-8.91-54.86-7.67-86.23 4.16-105.5 68.02-251.25 116.15-305.39l45.26 35.24"
        fill="#e33a43"/>
      <path d="m3748.4 4059.9s24.25-23.61 38.29-25.53c14.03-1.91 18.51 6.63 18.51 6.63l-2.56 18.9 6.97 47.85-56.43 40.53-22.65-69.99s11.8-12.86 17.87-18.39"
        fill="#f8c27c"/>
      <path d="m3730.5 4078.2s4.5-4.91 9.38-9.97c9.97 14.62 19.65 28.91 19.65 28.91 9.96-9.43 29.9-17.2 45.28-22.16l4.76 32.68-56.43 40.53-22.64-69.99"
        fill="#e9a760"/>
      <path d="m3703.9 4078.2c14.52 12.1 75.94 6.05 55.12-46.2-14.54-36.49-45.9-93.51-84.32-160.33-29-50.42-161.42-248.86-161.42-248.86l-48.83 24.61s200.35 398.21 239.45 430.78"
        fill="#f14e54"/>
      <path d="m2146.1 952.03s-16.08-33.601-20.54-41.261c-4.47-7.649-92.53-37.649-87.43-66.68 1.39-7.86 134.27 0.461 141.29 2.371 7.02 1.918 33.56 84.73 33.56 84.73l-66.88 20.84"
        fill="#f8c27c"/>
      <path d="m2166.4 889.08c-17.23 14.68-44.75 18.629-44.75 18.629h-0.06c-17.68-10.762-88.04-37.539-83.46-63.621 1.39-7.86 134.27 0.461 141.29 2.371 3.52 0.961 11.95 22.258 19.48 43.258-10.61-4.93-23.66-8.18-32.5-0.637"
        fill="#1e425c"/>
      <path d="m3563.7 1943.8c-24.36 1.1-44.73-18.35-44.73-42.75v-11.68c0-25.81 22.67-45.74 48.26-42.45l247.82 31.9v53.6l-251.35 11.38"
        fill="#3573bc"/>
      <path d="m2161.2 3670.8s65.09-76.58 40.2-172.29c-24.89-95.73-202.92-423.72-202.92-423.72s-181.87 44.03-246.96 114.86c0 0 130.18 184.42 158.89 264.82 28.72 80.41 75.66 164.34 93.81 183.79 26.8 28.71 91.89 65.09 156.98 32.54"
        fill="#3f9797"/>
      <path d="m1857 3521.6-12.4 33.95c-0.79 2.15 0.29 4.53 2.43 5.36l39.59 15.43c2.27 0.89 4.82-0.33 5.54-2.66l31.02-98.82c0.68-2.17-0.48-4.49-2.62-5.24l-36.87-12.9c-2.2-0.77-4.61 0.4-5.37 2.62l-21.32 62.26"
        fill="#171e3a"/>
      <path d="m4221.5 4128.2 2.8 36.03c0.17 2.29 2.14 4.01 4.43 3.88l42.43-2.37c2.43-0.14 4.24-2.31 3.94-4.72l-12.76-102.8c-0.27-2.25-2.29-3.88-4.56-3.67l-38.88 3.55c-2.33 0.21-4.04 2.28-3.81 4.6l6.41 65.5"
        fill="#171e3a"/>
      <path d="m2122.7 3701.1 0.5-2.15 4.29-18.77s-30.15-35.55-56-37.94c-25.84-2.4-29.19 0.95-30.15 6.22-0.95 5.27-2.87 26.8-2.87 26.8l84.23 25.84"
        fill="#f8c27c"/>
      <path d="m2079.6 3654.9c19.35 6.14 35.96 19.79 46.7 30.3l-3.13 13.71-0.5 2.15-84.23-25.84s1.41-15.85 2.42-23.67c11.62-1.17 25.23-0.93 38.74 3.35"
        fill="#e9a760"/>
      <path d="m1998.5 3074.7s178.04 327.99 202.93 423.72c10.53 40.54 4.88 77.56-5.08 106.87-0.81 0.28-1.68 0.55-2.47 0.82-45.31 15.31-67.64 54.24-67.64 54.24-12.77-22.34 7.01-61.9 7.01-61.9l5.74-19.47s-47.21-146.45-47.85-171.33c-0.54-20.92-86.25-253.65-113.59-327.38 13.02-3.64 20.95-5.57 20.95-5.57"
        fill="#347f7f"/>
      <path d="m1980 3877.3 4.13-140.77c1.21-41.12 35.51-73.48 76.64-72.29 37.25 1.07 67.98 29.51 71.94 66.58l14.68 137.64-167.39 8.84"
        fill="#f8c27c"/>
      <path d="m2138.5 3679.4s-25.03-25.42 8.16-95.61c13.98-29.58 154.42-38.83 154.42-38.83l54.97 3.9s39.99 87.89-19.23 107.03c-47.45 15.33-172.16 27.34-198.32 23.51"
        fill="#3f9797"/>
      <path d="m2235.4 3628.5c-34.88 11.79-97.6 15.18-105.54 26.42-1.46-15.22 1.25-38.18 16.81-71.09 13.63-28.85 147.24-38.34 153.8-38.79l40.82 67.53s-60.58 0.61-105.89 15.93"
        fill="#347f7f"/>
      <path d="m2371.4 3612.1c-10.08 31.79-43.24 50.15-75.53 41.81l-346.32-89.48 16.92-75.99 352.59 42.4c39.06 4.69 64.22 43.75 52.34 81.26"
        fill="#3f9797"/>
      <path d="m1953.3 3547.5 10.57-47.48-31.61-9.1s-21.54-11-35.41-8.61c-13.89 2.39-22.02 33.02-22.98 39.72-0.95 6.7 0.96 13.9 9.57 16.52 8.62 2.63 19.63 1.91 19.63 1.91l-4.31 11.24s15.56 5.98 21.77 1.23c5.17-3.95 14.88-9.37 14.88-9.37l17.89 3.94"
        fill="#f8c27c"/>
      <path d="m3511.6 3623.8-45.95 23.01-32.44-71.43-39.16-20.3c-2.82-1.46-4.63-4.32-4.73-7.49l-2.15-62.68s7.02 4.47 10.21 10.21 12.12 38.93 12.12 38.93 21.7 1.91 39.57 5.74c17.86 3.83 16.58 22.97 16.58 22.97l45.95 61.04"
        fill="#f8c27c"/>
      <path d="m4122.2 4038.5 49.92 52.66s3.83 22.01 17.23 34.45c13.4 12.45 40.47 20.1 40.47 20.1s5.35-7.78-8.88-23.9l-5.78-59.05-23.9-12.77-23.03-27.28-46.03 15.79"
        fill="#f8c27c"/>
      <path d="m3958.9 3355.2s-14.15-19.82-13.68-30.83c0.48-11.01-0.01-48.81-0.01-48.81s-14.82 9.57-27.27 24.4c-12.44 14.84-14.36 55.24-14.36 55.24l27.66 30.64 27.66-30.64"
        fill="#f8c27c"/>
      <path d="m3891.1 3347.9s42.12-141.66 48.34-139.27 15.79 54.08 9.57 67.96-33.02 30.15-37.33 49.77c-4.31 19.63-5.74 34.46-9.09 33.98s-14.76-1.55-11.49-12.44"
        fill="#c2525c"/>
      <path d="m2345.1 1896.8-14.04 5.15-40.52-5.15s-35.54-5.91-36.5-6.39-18.7-11.64-25.71-21.22c-7.03-9.57-8.3-39.47-8.3-39.47s6.34-7.95 10.85 0c4.46 7.89 10.91 21.41 10.91 21.41s26.1-2.28 35.04-1.32c8.93 0.95 14.39 9.17 14.39 9.17l38.57 1.6 15.31 36.22"
        fill="#f8c27c"/>
      <path d="m2541 2091.4c58.71-25.64 131.45-146.89 139.11-162.2s10.53-62.41-29.35-70.2c-39.89-7.78-326.73 0-326.73 0l8.06 49.25 203.88 26.06-48.47 43.36s25.69 125.86 53.5 113.73"
        fill="#ea1549"/>
      <path d="m2257.8 1960.4 32.92 10.8s8.67 10.1 12.1 12.95c3.19 2.66 15.75 5.34 15.75 5.34l0.57-13.22s44.97 3.27 46.71 2.81c6.76-1.77 4.69-39.3-2.62-48.31-2.76-3.39-23.83-6.56-31.15-7.41-7.32-0.84-25.89 5.35-26.73 5.35s-35.81-14.21-35.81-14.21l-11.74 45.9"
        fill="#f8c27c"/>
      <path d="m3815 1927.7 24.27 0.99s8.26 8.19 11.43 10.44c2.97 2.1 14.09 3.57 14.09 3.57l-0.42-11.56s39.39-0.25 40.87-0.77c5.76-2.02 1.38-34.55-5.61-41.88-2.64-2.77-21.2-4.09-27.64-4.31-6.42-0.24-22.71 3.51-23.45 3.56-0.73 0.06-33.54-3.45-33.54-3.45v43.41"
        fill="#f8c27c"/>
      <path d="m3934.7 2188.7-5.74-4.31c-5.76-4.3-14.37 0.48-14.37 0.48s-9.09-11.97-23.45-12.18c-14.35-0.22-25.85 13.62-25.85 13.62s-4.78-5.74-18.66-5.27c-13.88 0.48-39.73 22.5-39.73 22.5l-1.43-12.2c-1.44-12.19-15.6-49.49-15.6-49.49l1.14-38.59c1.21-41.12 35.51-73.48 76.64-72.3 37.25 1.08 67.98 29.52 71.94 66.58l3.86 36.21c-13.74 15.4-8.75 54.95-8.75 54.95"
        fill="#f8c27c"/>
      <path d="m3868.6 2113.1s-1.21-23.69 11.14-32.67c4.43-3.22-1.69-10.4-13.56-8.96-2.68 0.34 16.46 4.22 5.09 12.59-6.16 4.54-4.84 25.66-2.67 29.04"
        fill="#e9a760"/>
      <path d="m3847.6 2103.3c0-5.01-3.17-9.06-7.06-9.06-3.9 0-7.06 4.05-7.06 9.06 0 5 3.16 9.06 7.06 9.06 3.89 0 7.06-4.06 7.06-9.06"
        fill="#253229"/>
      <path d="m3903.5 2103.3c0-5.01-3.16-9.06-7.06-9.06-3.89 0-7.06 4.05-7.06 9.06 0 5 3.17 9.06 7.06 9.06 3.9 0 7.06-4.06 7.06-9.06"
        fill="#253229"/>
      <path d="m3808.4 2124.7s9.07 14.31 27.22 10.68 21.11-3.63 21.11-3.63-13.04 9.8-25.79 10.52c-12.75 0.74-21.82-9.02-22.54-17.57"
        fill="#171e3a"/>
      <path d="m3923.4 2124.7s-9.07 14.31-27.22 10.68-21.11-3.63-21.11-3.63 13.03 9.8 25.79 10.52c12.74 0.74 21.82-9.02 22.54-17.57"
        fill="#171e3a"/>
      <path d="m3857.1 2059.5s19.06-0.36 28.05 2.18c8.97 2.54-8.81-8.35-17.52-6.53-8.71 1.81-13.8 4.37-10.53 4.35"
        fill="#853327"/>
      <path d="m3943.4 2133.8s18.27 22.07 26.66 8.53c15.52-25.04-17.98-42.09-30.52-44.74l3.86 36.21"
        fill="#f8c27c"/>
      <path d="m3789.9 2141.8s-10.24 18.61-23.16 3.3c-12.92-15.32 12.71-42.14 24.3-41.89l-1.14 38.59"
        fill="#f8c27c"/>
      <path d="m2463.5 2164v-26.8l-7.98 26.8s-3.83 5.75-12.44 20.1c-8.62 14.36-0.96 40.21-0.96 40.21s-21.36-15.96-60.94-10.22-46.58 25.21-46.58 25.21-8.92-6.66-10.54-9.9c-4.29-8.55-4.33-38.03-4.33-38.03l2.15-73.44c1.21-41.12 35.51-73.49 76.63-72.29 37.26 1.07 67.99 29.51 71.95 66.58l5.54 51.97-12.5-0.19"
        fill="#f8c27c"/>
      <path d="m3689.2 4060.4c-59.78-85.1-224.69-412.88-224.69-412.88l8.62-4.35 230.83 435.13-14.76-17.9"
        fill="#e33a43"/>
      <path d="m2368 3566.6c-5.88-2.46-12.57-5.05-20.36-7.65-34.46-11.48-387.66-41.57-387.67-41.57l6.45-28.92 352.58 42.4c22.56 2.71 40.17 17.03 49 35.74"
        fill="#347f7f"/>
      <path d="m1126.3 1237.7s16.28-171.33 6.7-220.15c-9.57-48.82-65.43-147.73-65.43-147.73l4.76-9.508c16.77-10.383 29.09-16.242 29.09-16.242 51.05 22.66 112.41 265.53 112.41 306.39 0 62.83-13.72 98.64-28.24 120.1l-3.49 1.25-55.8-34.11"
        fill="#f58614"/>
      <path d="m1145.9 1303.4c-35.74 16.59-165.65-170.31-165.65-170.31l-117.5 104.39-35.735-37.01 123.46-136.77c16.371-18.13 44.387-19.29 62.097-2.46 53.71 51.03 156.29 149.93 164.65 168.91 26.29 59.65-31.32 73.25-31.32 73.25"
        fill="#f8a627"/>
      <path d="m1178.7 1279.8c-0.01-0.09-4.61-29.15-31.85-60.7-27.28-31.59-142.55-151.38-156.51-156.5-28.715-10.53-91.207 58.01-91.227 58.03l51.328-56.86c16.371-18.14 44.387-19.3 62.097-2.47 53.71 51.03 156.29 149.93 164.65 168.91 9.92 22.51 7.88 38.44 1.51 49.59"
        fill="#f58614"/>
      <path d="m3906.8 844.09h77.71c11.16 0 11.16 30.539 7.97 34.371-3.18 3.828-26.47 18.828-65.4 3.5-17.14-6.742-35.47-32.352-20.28-37.871"
        fill="#1e425c"/>
      <path d="m3992.4 1792.7 0.01-0.11h0.01c-0.01 0.04-0.01 0.08-0.02 0.11"
        fill="#2a6193"/>
      <path d="m4006.2 1952.1-23.6 48.5 9.65-203.63 5.03 120.31 142.29-81.99 13.41 21.73-146.78 95.08"
        fill="#2a6193"/>
      <path d="m4087.8 1610.1 151.18 219.01c3.24 4.52 5.29 9.52 6.35 14.66l-181.27-217.74 23.74-15.93"
        fill="#2a6193"/>
      <path d="m3917.6 1058.9 79.96-65.438-1.15-26.621-76.35 50.219-2.46 41.84"
        fill="#172c38"/>
      <path d="m2463.5 2164s23.5 36.12 31.9 19.15c14.68-29.68-17.63-53.6-23.33-55.83-5.7-2.24-8.57 7.96-8.57 7.96v28.72"
        fill="#f8c27c"/>
      <path d="m2491.2 2004.4 74.18-68.91-29.44-3.35-50.49 45.95s-0.55 12.39 5.75 26.31"
        fill="#cb1840"/>
      <path d="m2641.2 1872.3c-29.62-7.67-252.91-2.15-315.04-0.46l-2.11-12.85s286.84-7.78 326.73 0c20.04 3.92 29.28 17.76 32.54 32.49-11.02-7.08-25.71-14.92-42.12-19.18"
        fill="#cb1840"/>
      <path d="m2056.7 1836c-12.27-2-27.38-0.53-39.15 1.32 5.62-18.23 29.74-23.58 68.09-11.16l184.98 84.34-3.84 15.02s-186.47-85.7-210.08-89.52"
        fill="#cb1840"/>
      <path d="m1982.4 3794.9s-12.86 27.77-22.44 54.1c-9.57 26.32 14.36 38.76 14.36 38.76s-0.48 25.84 26.8 36.37 51.21-11.48 51.21-11.48 39.25 2.87 81.84-15.8c42.6-18.66 31.31-61.77 29.54-103.9-3.03-72.27-40.53-90.18-40.53-90.18l-8.63 53.37s-3.35 28.24-5.75 33.03c-2.39 4.79-18.66 22.49-22.01 45.94 0 0-62.7-21.06-98.11 0.96 0 0-6.8-23.5-6.28-41.17"
        fill="#171e3a"/>
      <path d="m2115 3754.4s7.93 34.22 14.39 37.09 18.68 2.4 17.96-12.44-13.2-39.89-29.23-45.17c-7.09-2.33-3.12 20.52-3.12 20.52"
        fill="#f8c27c"/>
      <path d="m1772.6 2650.2s9.47-44.59 14.51-56.66 12.6-74.18-16.92-78.44c-29.51-4.26-43.55 8.17-47.51 26.98s1.08 44.01-0.72 55.37-10.82 30.91-10.82 30.91l61.46 21.84"
        fill="#f8c27c"/>
      <path d="m1722.2 2583.5s24.16-8.92 39.73 0c15.58 8.94 22.57 17.95 22.57 17.95s1.43 0.24 7.43-23.05 2.11-59.81-6.77-68.28c-14.04-13.4-31.59-14.36-42.75-10.53-11.17 3.83-23.29 23.92-23.29 39.88 0 15.95 3.08 44.03 3.08 44.03"
        fill="#1e425c"/>
      <path d="m1446 2695s-11.47-55.45-20.56-59.76c-9.1-4.31-109.12-24.89-118.22-16.27-9.09 8.61 28.32 36.02 38.93 38.6 26.8 6.55 41.92 52.18 41.92 52.18l57.93-14.75"
        fill="#f8c27c"/>
      <path d="m1363.2 2663.3s16.11-13.09 33.98-11.81 41.42 13.42 41.42 13.42 7.08-19.8 0.06-26.18-143.26-47.86-156.66-43.39c-13.4 4.46 6.7 28.71 21.06 42.43 14.35 13.72 55.67 34.46 60.14 25.53"
        fill="#1e425c"/>
      <path d="m3906.5 4226.6c-29.17-17.19-108.18 39.19-108.18 39.19 1.14-32.96-33.32-93.65-47.54-117.69 5.03-37.31 37.16-65.67 75.63-64.56 37.25 1.08 67.99 29.52 71.94 66.58l8.15 76.48"
        fill="#f8c27c"/>
      <path d="m3896.5 4187.6c-1.55-6.36-5.28-10.92-8.32-10.17-3.03 0.74-4.23 6.5-2.68 12.87 1.56 6.36 5.28 10.91 8.33 10.17 3.04-0.74 4.24-6.51 2.67-12.87"
        fill="#171e3a"/>
      <path d="m3827.5 4193.4c-0.33-6.54-3.13-11.71-6.25-11.56-3.13 0.16-5.39 5.59-5.07 12.13 0.33 6.54 3.13 11.72 6.25 11.57 3.13-0.16 5.39-5.59 5.07-12.14"
        fill="#171e3a"/>
      <path d="m3901.7 4155.4c-0.36-3.37-7.15-5.39-15.15-4.53-7.99 0.86-14.19 4.29-13.82 7.66 0.36 3.36 7.14 5.39 15.14 4.52 8-0.86 14.19-4.29 13.83-7.65"
        fill="#f47185"/>
      <path d="m3821.8 4167.9c-0.37-3.36-7.14-5.39-15.15-4.53-8 0.87-14.19 4.3-13.83 7.66 0.37 3.37 7.15 5.39 15.15 4.53 8-0.87 14.19-4.3 13.83-7.66"
        fill="#f47185"/>
      <path d="m3870.3 4208.4s11.62 14.49 24.31 7.86c12.67-6.63 18.95-10.8 18.95-10.8l-6.07 9.17s-7.16 7.09-16.89 8.77c-9.72 1.67-21.43-7.43-20.3-15"
        fill="#253229"/>
      <path d="m3840.5 4222s-3.68 16.11-22.05 15.05c-18.37-1.07-28.21-13.05-28.21-13.05s23 10.45 34.12 6.37c11.14-4.09 16.14-8.37 16.14-8.37"
        fill="#253229"/>
      <path d="m3858.7 4185.5s-1.7-26.02 6.55-30.06c8.27-4.04-1.93-14.41-6.81-15.01l-4.89-0.59s11.56 7.43 9.09 10.55c-2.48 3.11-7.69 6.54-6.89 15.51 0.81 8.98 2.95 19.6 2.95 19.6"
        fill="#e9a760"/>
      <path d="m3834.1 4125.6s16.24-9.11 26.22-5.69c9.97 3.41-4.84-10.83-12.82-7.13-7.98 3.71-18.81 13.11-13.4 12.82"
        fill="#853327"/>
      <path d="m1996.5 3767c1.15-6.42 4.37-11.12 7.19-10.49 2.82 0.62 4.17 6.33 3.01 12.75s-4.38 11.12-7.19 10.49c-2.82-0.62-4.17-6.33-3.01-12.75"
        fill="#171e3a"/>
      <path d="m2060 3770.1c0.02-6.55 2.36-11.84 5.23-11.8 2.87 0.03 5.18 5.37 5.16 11.92s-2.36 11.83-5.23 11.8c-2.87-0.04-5.19-5.37-5.16-11.92"
        fill="#171e3a"/>
      <path d="m2021.3 3786.7s-10.04 14.93-21.94 8.8c-11.91-6.12-16.74-9.34-16.74-9.34l-0.03 5.96s11.75 9.06 20.74 10.35c8.99 1.3 19.33-8.26 17.97-15.77"
        fill="#253229"/>
      <path d="m2049.3 3799.2s4.06 15.95 20.86 14.17c16.79-1.78 25.3-14.15 25.3-14.15s-20.64 11.35-31.02 7.7c-10.37-3.64-15.14-7.72-15.14-7.72"
        fill="#253229"/>
      <path d="m2031 3763.4s0.45-26.06-7.29-29.78c-7.74-3.71 1.16-14.46 5.61-15.26l4.45-0.78s-10.28 7.88-7.88 10.9c2.41 3.01 7.33 6.23 6.98 15.23-0.36 9-1.87 19.69-1.87 19.69"
        fill="#e9a760"/>
      <path d="m2051 3702.6s-15.28-8.47-24.28-4.67c-9 3.81 3.98-11.01 11.45-7.62 7.48 3.39 17.81 12.36 12.83 12.29"
        fill="#853327"/>
      <path d="m2346.2 2147.3c1.15-6.42 4.38-11.12 7.19-10.49 2.82 0.62 4.17 6.33 3.01 12.74-1.16 6.43-4.38 11.12-7.2 10.5-2.81-0.63-4.16-6.34-3-12.75"
        fill="#171e3a"/>
      <path d="m2402.6 2148.3c0.02-6.55 2.36-11.84 5.23-11.81 2.87 0.04 5.18 5.37 5.16 11.93-0.02 6.55-2.36 11.83-5.23 11.79-2.87-0.03-5.18-5.37-5.16-11.91"
        fill="#171e3a"/>
      <path d="m2394.8 2181s4.06 15.96 20.86 14.17c16.8-1.77 25.3-14.15 25.3-14.15s-20.64 11.36-31.01 7.71c-10.38-3.64-15.15-7.73-15.15-7.73"
        fill="#253229"/>
      <path d="m2381.8 2148.4s0.45-26.07-7.3-29.78c-7.74-3.72 1.17-14.47 5.62-15.26l4.45-0.78s-10.28 7.87-7.88 10.89 7.32 6.24 6.97 15.23c-0.35 9.01-1.86 19.7-1.86 19.7"
        fill="#e9a760"/>
      <path d="m2370.2 2072.2s15.28 8.46 24.28 4.67c9-3.81-3.98 11-11.45 7.61s-17.81-12.36-12.83-12.28"
        fill="#853327"/>
      <path d="m865.72 1226.6-22.617 22.89s-3.621 12.07-10.203 22.95c-6.586 10.88-44.512 32.04-44.512 32.04s0.09-6.15 3.519-12.44c3.442-6.3 11.559-16.48 11.559-16.48s5.859-9.75-3.301-0.87c-9.152 8.87-21.754 24.61-21.754 24.61s-10.301-6.58-10.59-14.89c-0.281-8.3 8.02-26.04 12.883-37.49 4.867-11.45 43.512-26.33 43.512-26.33l24.613-31.49 16.891 37.5"
        fill="#f8c27c"/>
      <path d="m2320.2 2174.2s11.44 15.33 25.58 10.23c14.13-5.1 13.35-4.9 13.35-4.9s-1.57 10.51-17.53 11.85c-15.97 1.35-21.4-17.18-21.4-17.18"
        fill="#253229"/>
      <path d="m2601 345.35c-4.32-4.43-8.03-9.313-11.08-14.532l-4.65 2.41c-0.67 2.969-3.49 5.02-6.59 4.661-3.31-0.391-5.67-3.391-5.29-6.7 0.39-3.312 3.39-5.671 6.7-5.281 0.65 0.07 1.27 0.25 1.83 0.52l4.51-2.348c-2.51-5.543-4.32-11.383-5.39-17.434l7.47-1.316c2.3 13.059 8.5 25.066 17.92 34.727l-5.43 5.293"
        fill="#fafdfe"/>
      <path d="m2655.9 368.37c-1.71 0-3.41-0.062-5.09-0.172l-0.74 6.262c1.87 1.5 2.96 3.891 2.65 6.449-0.45 3.922-4.02 6.742-7.95 6.281s-6.74-4.031-6.27-7.961c0.3-2.539 1.89-4.609 4.04-5.64l0.73-6.238c-7.14-1.161-14.02-3.321-20.59-6.454l3.27-6.847c9.34 4.48 19.41 6.738 29.95 6.738 4.97 0 9.93-0.527 14.75-1.578l1.61 7.41c-5.36 1.16-10.85 1.75-16.36 1.75"
        fill="#fafdfe"/>
      <path d="m2721.9 342.9c3.31 0.403 5.67 3.411 5.26 6.723-0.4 3.309-3.41 5.66-6.72 5.25-3.1-0.379-5.35-3.031-5.3-6.082l-4.16-3.629c-4.18 4.289-8.9 8.121-14.08 11.391l-4.04-6.41c11.35-7.149 20.21-17.27 25.64-29.25l6.9 3.121c-2.51 5.539-5.67 10.718-9.42 15.449l4.02 3.508c0.61-0.117 1.25-0.16 1.9-0.071"
        fill="#fafdfe"/>
      <path d="m2650.4 266.29c-3.86-0.238-7.75-0.348-11.57-0.348-8.8 0-17.34 0.598-24.79 1.789-3.9 0.622-8.46 1.551-12.7 2.918 10.47-18.609 30.69-31.25 53.88-31.25 28.56 0 52.63 19.161 59.5 45.032-6.82-4.489-15.05-8.25-24.58-11.219-11.8-3.68-25.55-6.07-39.74-6.922"
        fill="#fafdfe"/>
      <path d="m2681.7 297.14c-7.5 0-13.6 6.101-13.6 13.601s6.1 13.61 13.6 13.61 13.6-6.11 13.6-13.61-6.1-13.601-13.6-13.601zm-47.37-9.082c-10.2 0-18.5 8.3-18.5 18.492 0 10.211 8.3 18.508 18.5 18.508 10.19 0 18.49-8.297 18.49-18.508 0-10.192-8.3-18.492-18.49-18.492zm21.59 65.14c-33.52 0-60.79-26.66-60.79-59.429 0-4.25 0.46-8.489 1.36-12.61 6.74-4.828 27.06-8.898 53.48-7.308 28.8 1.738 52.97 9.578 66.72 21.589-0.05 1.938-0.21 3.899-0.45 5.809-3.8 29.621-29.74 51.949-60.32 51.949"
        fill="#fafdfe"/>
      <path d="m2816 334.53c-2.95 1.16-8.06 3.098-13.83 2.379-5.51-0.691-8.44-3.398-8.44-10.058v-8.672h22.29v-17.16h-22.29v-54.559h-19.31v54.559h-13.39v17.16h13.39v8.89c0 16.801 8.95 27.821 25.68 27.821 6.42 0 11.57-1.211 15.9-3.071v-17.289"
        fill="#fafdfe"/>
      <path d="m2863 301.22c-1.77 0.293-3.58 0.461-5.26 0.461-8.95 0-15.09-5.481-15.09-16.129v-39.09h-19.33v71.719h18.73v-7.84c4.51 6.73 11.4 9.769 20.21 9.769 4.14 0 8.47-1.277 10.94-3.367l-10.2-15.523"
        fill="#fafdfe"/>
      <path d="m2888.5 289.09h31.74c-1.77 9.18-7.32 14.371-15.61 14.371-9.1 0-14.44-5.481-16.13-14.371zm51.14-6.66c0-2.219-0.16-4.879-0.37-6.508h-50.85c2.07-10.363 9.32-14.883 18.43-14.883 6.22 0 12.94 2.52 18.13 6.891l11.33-12.43c-8.15-7.48-18.51-10.891-30.57-10.891-21.98 0-37.23 14.961-37.23 37.532 0 22.578 14.8 37.968 36.26 37.968 20.65 0 34.79-15.32 34.87-37.679"
        fill="#fafdfe"/>
      <path d="m2965 289.09h31.75c-1.78 9.18-7.34 14.371-15.62 14.371-9.1 0-14.43-5.481-16.13-14.371zm51.14-6.66c0-2.219-0.15-4.879-0.37-6.508h-50.85c2.07-10.363 9.33-14.883 18.43-14.883 6.22 0 12.96 2.52 18.13 6.891l11.33-12.43c-8.14-7.48-18.5-10.891-30.57-10.891-21.99 0-37.23 14.961-37.23 37.532 0 22.578 14.8 37.968 36.27 37.968 20.64 0 34.78-15.32 34.86-37.679"
        fill="#fafdfe"/>
      <path d="m3042.9 282.36c0-11.32 7.48-19.757 18.44-19.757 11.4 0 18.49 8.808 18.49 19.757 0 10.95-7.09 19.762-18.49 19.762-10.96 0-18.44-8.441-18.44-19.762zm56.78 0c0-21.539-14.95-37.75-34.72-37.75-9.62 0-16.43 3.782-21.09 9.332v-37.082h-19.25v101.32h18.88v-7.918c4.66 5.847 11.54 9.847 21.38 9.847 19.85 0 34.8-16.207 34.8-37.75"
        fill="#fafdfe"/>
      <path d="m3128.1 246.46h-19.32v71.719h19.32zm2.59 95.187c0-6.957-5.41-12.289-12.36-12.289-6.96 0-12.28 5.332-12.28 12.289 0 6.954 5.32 12.434 12.28 12.434 6.95 0 12.36-5.48 12.36-12.434"
        fill="#fafdfe"/>
      <path d="m3160.3 292.65 27.02 25.528h23.69l-34.79-33.75 35.01-37.969h-23.76l-27.17 29.019v-29.019h-19.31v106.59h19.31v-60.399"
        fill="#fafdfe"/>
      <path d="m1844.1 266.3v32.078c-3.95 6.152-12.45 11.422-21.24 11.422-14.21 0-22.7-11.711-22.7-27.391 0-15.668 8.49-27.238 22.7-27.238 8.79 0 17.29 4.98 21.24 11.129zm0-19.192v10.551c-5.28-7.18-13.92-12.308-23.88-12.308-18.45 0-31.49 14.058-31.49 37.058 0 22.559 12.89 37.211 31.49 37.211 9.53 0 18.17-4.691 23.88-12.449v37.637h10.99v-97.7h-10.99"
        fill="#fafdfe"/>
      <path d="m1904 310.54c-15.09 0-22.56-12.75-23.15-23.59h46.44c-0.15 10.551-7.18 23.59-23.29 23.59zm-34.72-27.98c0 20.511 14.65 37.062 34.86 37.062 21.39 0 33.98-16.699 33.98-37.941v-2.778h-57.27c0.88-13.332 10.26-24.472 25.49-24.472 8.06 0 16.26 3.23 21.82 8.941l5.28-7.18c-7.03-7.031-16.55-10.839-28.12-10.839-20.95 0-36.04 15.089-36.04 37.207"
        fill="#fafdfe"/>
      <path d="m1946.1 256.48 5.72 7.911c4.68-5.422 13.62-10.102 23.28-10.102 10.85 0 16.71 5.121 16.71 12.16 0 17.133-43.8 6.59-43.8 32.813 0 10.976 9.51 20.359 26.36 20.359 12.02 0 20.51-4.539 26.23-10.25l-5.14-7.621c-4.24 5.121-12 8.93-21.09 8.93-9.66 0-15.67-4.828-15.67-11.129 0-15.531 43.8-5.27 43.8-32.809 0-11.871-9.52-21.39-27.83-21.39-11.57 0-21.39 3.519-28.57 11.128"
        fill="#fafdfe"/>
      <path d="m2016.7 247.11v70.75h11v-70.75zm-1.89 88.18c0 4.102 3.36 7.473 7.31 7.473 4.11 0 7.48-3.371 7.48-7.473 0-4.098-3.37-7.32-7.48-7.32-3.95 0-7.31 3.222-7.31 7.32"
        fill="#fafdfe"/>
      <path d="m2097.1 267.47v30.91c-3.81 6.152-12.3 11.422-21.09 11.422-14.21 0-22.7-11.27-22.7-26.949 0-15.532 8.49-26.954 22.7-26.954 8.79 0 17.28 5.422 21.09 11.571zm-51.26-38.52 5.56 8.199c5.86-7.027 12.89-9.668 22.99-9.668 11.72 0 22.71 5.711 22.71 21.239v10.113c-5.13-7.184-13.77-12.602-23.73-12.602-18.46 0-31.49 13.77-31.49 36.622 0 22.707 12.89 36.769 31.49 36.769 9.52 0 18.02-4.691 23.73-12.449v10.687h10.99v-68.699c0-23.441-16.41-30.762-33.7-30.762-12.01 0-20.21 2.352-28.55 10.551"
        fill="#fafdfe"/>
      <path d="m2174.1 247.11v46.289c0 12.454-6.3 16.403-15.82 16.403-8.65 0-16.85-5.27-20.95-10.981v-51.711h-10.99v70.75h10.99v-10.25c4.98 5.86 14.65 12.012 25.19 12.012 14.8 0 22.56-7.473 22.56-22.851v-49.661h-10.98"
        fill="#fafdfe"/>
      <path d="m2234 310.54c-15.09 0-22.56-12.75-23.14-23.59h46.43c-0.14 10.551-7.17 23.59-23.29 23.59zm-34.71-27.98c0 20.511 14.64 37.062 34.86 37.062 21.39 0 33.98-16.699 33.98-37.941v-2.778h-57.27c0.88-13.332 10.25-24.472 25.49-24.472 8.05 0 16.26 3.23 21.82 8.941l5.28-7.18c-7.04-7.031-16.56-10.839-28.13-10.839-20.94 0-36.03 15.089-36.03 37.207"
        fill="#fafdfe"/>
      <path d="m2333.5 266.3v32.078c-3.96 6.152-12.46 11.422-21.24 11.422-14.21 0-22.71-11.711-22.71-27.391 0-15.668 8.5-27.238 22.71-27.238 8.78 0 17.28 4.98 21.24 11.129zm0-19.192v10.551c-5.28-7.18-13.92-12.308-23.89-12.308-18.45 0-31.49 14.058-31.49 37.058 0 22.559 12.89 37.211 31.49 37.211 9.53 0 18.17-4.691 23.89-12.449v37.637h10.98v-97.7h-10.98"
        fill="#fafdfe"/>
      <path d="m2429 255.17c14.36 0 22.86 11.57 22.86 27.238 0 15.68-8.5 27.391-22.86 27.391-8.64 0-17.28-5.27-21.09-11.422v-32.078c3.81-6.149 12.45-11.129 21.09-11.129zm-32.08-8.063v97.7h10.99v-37.637c5.71 7.758 14.21 12.449 23.88 12.449 18.45 0 31.49-14.652 31.49-37.211 0-23-13.04-37.058-31.49-37.058-9.96 0-18.61 5.128-23.88 12.308v-10.551h-10.99"
        fill="#fafdfe"/>
      <path d="m2475.3 229.38c1.61-0.731 4.25-1.168 6-1.168 4.84 0 8.06 1.609 10.55 7.469l4.69 10.699-29.59 71.48h11.86l23.59-58.007 23.44 58.007h12l-35.44-85.109c-4.25-10.238-11.43-14.211-20.8-14.352-2.35 0-6.01 0.442-8.06 1.032l1.76 9.949"
        fill="#fafdfe"/>
    </g>
  </g>
</svg>
